<svg xmlns="http://www.w3.org/2000/svg" xmlns:xlink="http://www.w3.org/1999/xlink" contentStyleType="text/css" height="454px" preserveAspectRatio="none" style="width:1512px;height:454px;background:#FFFFFF;" version="1.1" viewBox="0 0 1512 454" width="1512px" zoomAndPan="magnify"><defs/><g><!--cluster com--><g id="cluster_com"><path d="M8.5,6.0137 L38.2861,6.0137 A3.75,3.75 0 0 1 40.7861,8.5137 L47.7861,30.6348 L1502.5,30.6348 A2.5,2.5 0 0 1 1505,33.1348 L1505,444.5137 A2.5,2.5 0 0 1 1502.5,447.0137 L8.5,447.0137 A2.5,2.5 0 0 1 6,444.5137 L6,8.5137 A2.5,2.5 0 0 1 8.5,6.0137 " fill="none" style="stroke:#000000;stroke-width:1.5;"/><line style="stroke:#000000;stroke-width:1.5;" x1="6" x2="47.7861" y1="30.6348" y2="30.6348"/><text fill="#000000" font-family="sans-serif" font-size="14" font-weight="bold" lengthAdjust="spacing" textLength="28.7861" x="10" y="23.1211">com</text></g><!--cluster system--><g id="cluster_system"><path d="M32.5,51.0137 L81.7549,51.0137 A3.75,3.75 0 0 1 84.2549,53.5137 L91.2549,75.6348 L1478.5,75.6348 A2.5,2.5 0 0 1 1481,78.1348 L1481,420.5137 A2.5,2.5 0 0 1 1478.5,423.0137 L32.5,423.0137 A2.5,2.5 0 0 1 30,420.5137 L30,53.5137 A2.5,2.5 0 0 1 32.5,51.0137 " fill="none" style="stroke:#000000;stroke-width:1.5;"/><line style="stroke:#000000;stroke-width:1.5;" x1="30" x2="91.2549" y1="75.6348" y2="75.6348"/><text fill="#000000" font-family="sans-serif" font-size="14" font-weight="bold" lengthAdjust="spacing" textLength="48.2549" x="34" y="68.1211">system</text></g><!--cluster browser--><g id="cluster_browser"><path d="M56.5,96.0137 L111.9619,96.0137 A3.75,3.75 0 0 1 114.4619,98.5137 L121.4619,120.6348 L1454.5,120.6348 A2.5,2.5 0 0 1 1457,123.1348 L1457,396.5137 A2.5,2.5 0 0 1 1454.5,399.0137 L56.5,399.0137 A2.5,2.5 0 0 1 54,396.5137 L54,98.5137 A2.5,2.5 0 0 1 56.5,96.0137 " fill="none" style="stroke:#000000;stroke-width:1.5;"/><line style="stroke:#000000;stroke-width:1.5;" x1="54" x2="121.4619" y1="120.6348" y2="120.6348"/><text fill="#000000" font-family="sans-serif" font-size="14" font-weight="bold" lengthAdjust="spacing" textLength="54.4619" x="58" y="113.1211">browser</text></g><!--class BrowserApplication--><g id="elem_BrowserApplication"><rect codeLine="7" fill="#F1F1F1" height="66.6211" id="BrowserApplication" rx="2.5" ry="2.5" style="stroke:#181818;stroke-width:0.5;" width="223.6338" x="555" y="133.0137"/><ellipse cx="602.6499" cy="149.0137" fill="#ADD1B2" rx="11" ry="11" style="stroke:#181818;stroke-width:1.0;"/><path d="M605.4155,144.8887 Q605.5718,144.6699 605.7593,144.5605 Q605.9468,144.4512 606.1655,144.4512 Q606.5405,144.4512 606.7749,144.7168 Q607.0093,144.9668 607.0093,145.5762 L607.0093,147.0293 Q607.0093,147.6387 606.7749,147.9043 Q606.5405,148.1699 606.1655,148.1699 Q605.8218,148.1699 605.6187,147.9668 Q605.4155,147.7793 605.3062,147.2637 Q605.2593,146.9043 605.0718,146.7168 Q604.7437,146.3418 604.1343,146.123 Q603.5249,145.9043 602.8999,145.9043 Q602.1343,145.9043 601.4937,146.2324 Q600.8687,146.5605 600.3687,147.3105 Q599.8843,148.0605 599.8843,149.0918 L599.8843,150.1855 Q599.8843,151.4199 600.7749,152.248 Q601.6655,153.0605 603.2593,153.0605 Q604.1968,153.0605 604.853,152.8105 Q605.2437,152.6543 605.6655,152.2168 Q605.9312,151.9512 606.0718,151.873 Q606.228,151.7949 606.4312,151.7949 Q606.7593,151.7949 607.0093,152.0605 Q607.2749,152.3105 607.2749,152.6543 Q607.2749,152.998 606.9312,153.4043 Q606.4312,153.9824 605.6343,154.3105 Q604.5562,154.7637 603.2593,154.7637 Q601.7437,154.7637 600.5405,154.1387 Q599.5562,153.6387 598.8687,152.5762 Q598.1812,151.498 598.1812,150.2168 L598.1812,149.0605 Q598.1812,147.7324 598.7905,146.5918 Q599.4155,145.4355 600.5093,144.8262 Q601.603,144.2012 602.8374,144.2012 Q603.5718,144.2012 604.2124,144.373 Q604.8687,144.5293 605.4155,144.8887 Z " fill="#000000"/><text fill="#000000" font-family="sans-serif" font-size="14" lengthAdjust="spacing" textLength="119.834" x="623.1499" y="154.8105">BrowserApplication</text><line style="stroke:#181818;stroke-width:0.5;" x1="556" x2="777.6338" y1="165.0137" y2="165.0137"/><line style="stroke:#181818;stroke-width:0.5;" x1="556" x2="777.6338" y1="173.0137" y2="173.0137"/><ellipse cx="566" cy="187.8242" fill="#84BE84" rx="3" ry="3" style="stroke:#038048;stroke-width:1.0;"/><text fill="#000000" font-family="sans-serif" font-size="14" lengthAdjust="spacing" textLength="197.6338" x="575" y="192.1211">start(Stage primaryStage) : void</text></g><path d="M814.5,139.0137 L814.5,157.3047 L772.6338,186.3242 L814.5,165.3047 L814.5,183.5957 A0,0 0 0 0 814.5,183.5957 L1131.0532,183.5957 A0,0 0 0 0 1131.0532,183.5957 L1131.0532,149.0137 L1121.0532,139.0137 L814.5,139.0137 A0,0 0 0 0 814.5,139.0137 " fill="#FEFFDD" style="stroke:#181818;stroke-width:0.5;"/><path d="M1121.0532,139.0137 L1121.0532,149.0137 L1131.0532,149.0137 L1121.0532,139.0137 " fill="#FEFFDD" style="stroke:#181818;stroke-width:0.5;"/><text fill="#000000" font-family="sans-serif" font-size="13" lengthAdjust="spacing" textLength="244.2451" x="820.5" y="158.042">The entry point for the JavaFX application.</text><text fill="#000000" font-family="sans-serif" font-size="13" lengthAdjust="spacing" textLength="295.5532" x="820.5" y="175.333">Sets up the scene and loads the layout from FXML.</text><!--class Application--><g id="elem_Application"><rect codeLine="18" fill="#F1F1F1" height="66.6211" id="Application" rx="2.5" ry="2.5" style="stroke:#181818;stroke-width:0.5;" width="197.1855" x="70.5" y="297.5137"/><ellipse cx="130.5981" cy="313.5137" fill="#ADD1B2" rx="11" ry="11" style="stroke:#181818;stroke-width:1.0;"/><path d="M133.3638,309.3887 Q133.52,309.1699 133.7075,309.0605 Q133.895,308.9512 134.1138,308.9512 Q134.4888,308.9512 134.7231,309.2168 Q134.9575,309.4668 134.9575,310.0762 L134.9575,311.5293 Q134.9575,312.1387 134.7231,312.4043 Q134.4888,312.6699 134.1138,312.6699 Q133.77,312.6699 133.5669,312.4668 Q133.3638,312.2793 133.2544,311.7637 Q133.2075,311.4043 133.02,311.2168 Q132.6919,310.8418 132.0825,310.623 Q131.4731,310.4043 130.8481,310.4043 Q130.0825,310.4043 129.4419,310.7324 Q128.8169,311.0605 128.3169,311.8105 Q127.8325,312.5605 127.8325,313.5918 L127.8325,314.6855 Q127.8325,315.9199 128.7231,316.748 Q129.6138,317.5605 131.2075,317.5605 Q132.145,317.5605 132.8013,317.3105 Q133.1919,317.1543 133.6138,316.7168 Q133.8794,316.4512 134.02,316.373 Q134.1763,316.2949 134.3794,316.2949 Q134.7075,316.2949 134.9575,316.5605 Q135.2231,316.8105 135.2231,317.1543 Q135.2231,317.498 134.8794,317.9043 Q134.3794,318.4824 133.5825,318.8105 Q132.5044,319.2637 131.2075,319.2637 Q129.6919,319.2637 128.4888,318.6387 Q127.5044,318.1387 126.8169,317.0762 Q126.1294,315.998 126.1294,314.7168 L126.1294,313.5605 Q126.1294,312.2324 126.7388,311.0918 Q127.3638,309.9355 128.4575,309.3262 Q129.5513,308.7012 130.7856,308.7012 Q131.52,308.7012 132.1606,308.873 Q132.8169,309.0293 133.3638,309.3887 Z " fill="#000000"/><text fill="#000000" font-family="sans-serif" font-size="14" lengthAdjust="spacing" textLength="68.4893" x="151.0981" y="319.3105">Application</text><line style="stroke:#181818;stroke-width:0.5;" x1="71.5" x2="266.6855" y1="329.5137" y2="329.5137"/><line style="stroke:#181818;stroke-width:0.5;" x1="71.5" x2="266.6855" y1="337.5137" y2="337.5137"/><ellipse cx="81.5" cy="352.3242" fill="#84BE84" rx="3" ry="3" style="stroke:#038048;stroke-width:1.0;"/><text fill="#000000" font-family="sans-serif" font-size="14" lengthAdjust="spacing" textLength="171.1855" x="90.5" y="356.6211">launch(args : String[]) : void</text></g><!--class FXMLLoader--><g id="elem_FXMLLoader"><rect codeLine="22" fill="#F1F1F1" height="66.6211" id="FXMLLoader" rx="2.5" ry="2.5" style="stroke:#181818;stroke-width:0.5;" width="169.9443" x="303" y="297.5137"/><ellipse cx="343.6562" cy="313.5137" fill="#ADD1B2" rx="11" ry="11" style="stroke:#181818;stroke-width:1.0;"/><path d="M346.4218,309.3887 Q346.578,309.1699 346.7655,309.0605 Q346.953,308.9512 347.1718,308.9512 Q347.5468,308.9512 347.7812,309.2168 Q348.0155,309.4668 348.0155,310.0762 L348.0155,311.5293 Q348.0155,312.1387 347.7812,312.4043 Q347.5468,312.6699 347.1718,312.6699 Q346.828,312.6699 346.6249,312.4668 Q346.4218,312.2793 346.3124,311.7637 Q346.2655,311.4043 346.078,311.2168 Q345.7499,310.8418 345.1405,310.623 Q344.5312,310.4043 343.9062,310.4043 Q343.1405,310.4043 342.4999,310.7324 Q341.8749,311.0605 341.3749,311.8105 Q340.8905,312.5605 340.8905,313.5918 L340.8905,314.6855 Q340.8905,315.9199 341.7812,316.748 Q342.6718,317.5605 344.2655,317.5605 Q345.203,317.5605 345.8593,317.3105 Q346.2499,317.1543 346.6718,316.7168 Q346.9374,316.4512 347.078,316.373 Q347.2343,316.2949 347.4374,316.2949 Q347.7655,316.2949 348.0155,316.5605 Q348.2812,316.8105 348.2812,317.1543 Q348.2812,317.498 347.9374,317.9043 Q347.4374,318.4824 346.6405,318.8105 Q345.5624,319.2637 344.2655,319.2637 Q342.7499,319.2637 341.5468,318.6387 Q340.5624,318.1387 339.8749,317.0762 Q339.1874,315.998 339.1874,314.7168 L339.1874,313.5605 Q339.1874,312.2324 339.7968,311.0918 Q340.4218,309.9355 341.5155,309.3262 Q342.6093,308.7012 343.8437,308.7012 Q344.578,308.7012 345.2187,308.873 Q345.8749,309.0293 346.4218,309.3887 Z " fill="#000000"/><text fill="#000000" font-family="sans-serif" font-size="14" lengthAdjust="spacing" textLength="80.9307" x="363.3575" y="319.3105">FXMLLoader</text><line style="stroke:#181818;stroke-width:0.5;" x1="304" x2="471.9443" y1="329.5137" y2="329.5137"/><line style="stroke:#181818;stroke-width:0.5;" x1="304" x2="471.9443" y1="337.5137" y2="337.5137"/><ellipse cx="314" cy="352.3242" fill="#84BE84" rx="3" ry="3" style="stroke:#038048;stroke-width:1.0;"/><text fill="#000000" font-family="sans-serif" font-size="14" lengthAdjust="spacing" textLength="143.9443" x="323" y="356.6211">load(url : URL) : Parent</text></g><!--class Parent--><g id="elem_Parent"><rect codeLine="26" fill="#F1F1F1" height="48" id="Parent" rx="2.5" ry="2.5" style="stroke:#181818;stroke-width:0.5;" width="73.248" x="508.5" y="307.0137"/><ellipse cx="523.5" cy="323.0137" fill="#ADD1B2" rx="11" ry="11" style="stroke:#181818;stroke-width:1.0;"/><path d="M526.2656,318.8887 Q526.4219,318.6699 526.6094,318.5605 Q526.7969,318.4512 527.0156,318.4512 Q527.3906,318.4512 527.625,318.7168 Q527.8594,318.9668 527.8594,319.5762 L527.8594,321.0293 Q527.8594,321.6387 527.625,321.9043 Q527.3906,322.1699 527.0156,322.1699 Q526.6719,322.1699 526.4688,321.9668 Q526.2656,321.7793 526.1563,321.2637 Q526.1094,320.9043 525.9219,320.7168 Q525.5938,320.3418 524.9844,320.123 Q524.375,319.9043 523.75,319.9043 Q522.9844,319.9043 522.3438,320.2324 Q521.7188,320.5605 521.2188,321.3105 Q520.7344,322.0605 520.7344,323.0918 L520.7344,324.1855 Q520.7344,325.4199 521.625,326.248 Q522.5156,327.0605 524.1094,327.0605 Q525.0469,327.0605 525.7031,326.8105 Q526.0938,326.6543 526.5156,326.2168 Q526.7813,325.9512 526.9219,325.873 Q527.0781,325.7949 527.2813,325.7949 Q527.6094,325.7949 527.8594,326.0605 Q528.125,326.3105 528.125,326.6543 Q528.125,326.998 527.7813,327.4043 Q527.2813,327.9824 526.4844,328.3105 Q525.4063,328.7637 524.1094,328.7637 Q522.5938,328.7637 521.3906,328.1387 Q520.4063,327.6387 519.7188,326.5762 Q519.0313,325.498 519.0313,324.2168 L519.0313,323.0605 Q519.0313,321.7324 519.6406,320.5918 Q520.2656,319.4355 521.3594,318.8262 Q522.4531,318.2012 523.6875,318.2012 Q524.4219,318.2012 525.0625,318.373 Q525.7188,318.5293 526.2656,318.8887 Z " fill="#000000"/><text fill="#000000" font-family="sans-serif" font-size="14" lengthAdjust="spacing" textLength="41.248" x="537.5" y="328.8105">Parent</text><line style="stroke:#181818;stroke-width:0.5;" x1="509.5" x2="580.748" y1="339.0137" y2="339.0137"/><line style="stroke:#181818;stroke-width:0.5;" x1="509.5" x2="580.748" y1="347.0137" y2="347.0137"/></g><!--class Scene--><g id="elem_Scene"><rect codeLine="29" fill="#F1F1F1" height="85.2422" id="Scene" rx="2.5" ry="2.5" style="stroke:#181818;stroke-width:0.5;" width="345.8672" x="617" y="288.5137"/><ellipse cx="765.8354" cy="304.5137" fill="#ADD1B2" rx="11" ry="11" style="stroke:#181818;stroke-width:1.0;"/><path d="M768.6011,300.3887 Q768.7573,300.1699 768.9448,300.0605 Q769.1323,299.9512 769.3511,299.9512 Q769.7261,299.9512 769.9604,300.2168 Q770.1948,300.4668 770.1948,301.0762 L770.1948,302.5293 Q770.1948,303.1387 769.9604,303.4043 Q769.7261,303.6699 769.3511,303.6699 Q769.0073,303.6699 768.8042,303.4668 Q768.6011,303.2793 768.4917,302.7637 Q768.4448,302.4043 768.2573,302.2168 Q767.9292,301.8418 767.3198,301.623 Q766.7104,301.4043 766.0854,301.4043 Q765.3198,301.4043 764.6792,301.7324 Q764.0542,302.0605 763.5542,302.8105 Q763.0698,303.5605 763.0698,304.5918 L763.0698,305.6855 Q763.0698,306.9199 763.9604,307.748 Q764.8511,308.5605 766.4448,308.5605 Q767.3823,308.5605 768.0386,308.3105 Q768.4292,308.1543 768.8511,307.7168 Q769.1167,307.4512 769.2573,307.373 Q769.4136,307.2949 769.6167,307.2949 Q769.9448,307.2949 770.1948,307.5605 Q770.4604,307.8105 770.4604,308.1543 Q770.4604,308.498 770.1167,308.9043 Q769.6167,309.4824 768.8198,309.8105 Q767.7417,310.2637 766.4448,310.2637 Q764.9292,310.2637 763.7261,309.6387 Q762.7417,309.1387 762.0542,308.0762 Q761.3667,306.998 761.3667,305.7168 L761.3667,304.5605 Q761.3667,303.2324 761.9761,302.0918 Q762.6011,300.9355 763.6948,300.3262 Q764.7886,299.7012 766.0229,299.7012 Q766.7573,299.7012 767.3979,299.873 Q768.0542,300.0293 768.6011,300.3887 Z " fill="#000000"/><text fill="#000000" font-family="sans-serif" font-size="14" lengthAdjust="spacing" textLength="39.6963" x="786.3354" y="310.3105">Scene</text><line style="stroke:#181818;stroke-width:0.5;" x1="618" x2="961.8672" y1="320.5137" y2="320.5137"/><line style="stroke:#181818;stroke-width:0.5;" x1="618" x2="961.8672" y1="328.5137" y2="328.5137"/><ellipse cx="628" cy="343.3242" fill="#84BE84" rx="3" ry="3" style="stroke:#038048;stroke-width:1.0;"/><text fill="#000000" font-family="sans-serif" font-size="14" lengthAdjust="spacing" textLength="319.8672" x="637" y="347.6211">Scene(root : Parent, width : double, height : double)</text><ellipse cx="628" cy="361.9453" fill="#84BE84" rx="3" ry="3" style="stroke:#038048;stroke-width:1.0;"/><text fill="#000000" font-family="sans-serif" font-size="14" lengthAdjust="spacing" textLength="259.1299" x="637" y="366.2422">getStylesheets() : ObservableList&lt;String&gt;</text></g><!--class Stage--><g id="elem_Stage"><rect codeLine="34" fill="#F1F1F1" height="103.8633" id="Stage" rx="2.5" ry="2.5" style="stroke:#181818;stroke-width:0.5;" width="219.7715" x="998" y="279.0137"/><ellipse cx="1085.3428" cy="295.0137" fill="#ADD1B2" rx="11" ry="11" style="stroke:#181818;stroke-width:1.0;"/><path d="M1088.1084,290.8887 Q1088.2646,290.6699 1088.4521,290.5605 Q1088.6396,290.4512 1088.8584,290.4512 Q1089.2334,290.4512 1089.4678,290.7168 Q1089.7021,290.9668 1089.7021,291.5762 L1089.7021,293.0293 Q1089.7021,293.6387 1089.4678,293.9043 Q1089.2334,294.1699 1088.8584,294.1699 Q1088.5146,294.1699 1088.3115,293.9668 Q1088.1084,293.7793 1087.999,293.2637 Q1087.9521,292.9043 1087.7646,292.7168 Q1087.4365,292.3418 1086.8271,292.123 Q1086.2178,291.9043 1085.5928,291.9043 Q1084.8271,291.9043 1084.1865,292.2324 Q1083.5615,292.5605 1083.0615,293.3105 Q1082.5771,294.0605 1082.5771,295.0918 L1082.5771,296.1855 Q1082.5771,297.4199 1083.4678,298.248 Q1084.3584,299.0605 1085.9521,299.0605 Q1086.8896,299.0605 1087.5459,298.8105 Q1087.9365,298.6543 1088.3584,298.2168 Q1088.624,297.9512 1088.7646,297.873 Q1088.9209,297.7949 1089.124,297.7949 Q1089.4521,297.7949 1089.7021,298.0605 Q1089.9678,298.3105 1089.9678,298.6543 Q1089.9678,298.998 1089.624,299.4043 Q1089.124,299.9824 1088.3271,300.3105 Q1087.249,300.7637 1085.9521,300.7637 Q1084.4365,300.7637 1083.2334,300.1387 Q1082.249,299.6387 1081.5615,298.5762 Q1080.874,297.498 1080.874,296.2168 L1080.874,295.0605 Q1080.874,293.7324 1081.4834,292.5918 Q1082.1084,291.4355 1083.2021,290.8262 Q1084.2959,290.2012 1085.5303,290.2012 Q1086.2646,290.2012 1086.9053,290.373 Q1087.5615,290.5293 1088.1084,290.8887 Z " fill="#000000"/><text fill="#000000" font-family="sans-serif" font-size="14" lengthAdjust="spacing" textLength="36.5859" x="1105.8428" y="300.8105">Stage</text><line style="stroke:#181818;stroke-width:0.5;" x1="999" x2="1216.7715" y1="311.0137" y2="311.0137"/><line style="stroke:#181818;stroke-width:0.5;" x1="999" x2="1216.7715" y1="319.0137" y2="319.0137"/><ellipse cx="1009" cy="333.8242" fill="#84BE84" rx="3" ry="3" style="stroke:#038048;stroke-width:1.0;"/><text fill="#000000" font-family="sans-serif" font-size="14" lengthAdjust="spacing" textLength="161.8271" x="1018" y="338.1211">setTitle(title : String) : void</text><ellipse cx="1009" cy="352.4453" fill="#84BE84" rx="3" ry="3" style="stroke:#038048;stroke-width:1.0;"/><text fill="#000000" font-family="sans-serif" font-size="14" lengthAdjust="spacing" textLength="193.7715" x="1018" y="356.7422">setScene(scene : Scene) : void</text><ellipse cx="1009" cy="371.0664" fill="#84BE84" rx="3" ry="3" style="stroke:#038048;stroke-width:1.0;"/><text fill="#000000" font-family="sans-serif" font-size="14" lengthAdjust="spacing" textLength="79.3584" x="1018" y="375.3633">show() : void</text></g><!--class Objects--><g id="elem_Objects"><rect codeLine="40" fill="#F1F1F1" height="66.6211" id="Objects" rx="2.5" ry="2.5" style="stroke:#181818;stroke-width:0.5;" width="187.8271" x="1253" y="297.5137"/><ellipse cx="1318.9326" cy="313.5137" fill="#ADD1B2" rx="11" ry="11" style="stroke:#181818;stroke-width:1.0;"/><path d="M1321.6982,309.3887 Q1321.8545,309.1699 1322.042,309.0605 Q1322.2295,308.9512 1322.4482,308.9512 Q1322.8232,308.9512 1323.0576,309.2168 Q1323.292,309.4668 1323.292,310.0762 L1323.292,311.5293 Q1323.292,312.1387 1323.0576,312.4043 Q1322.8232,312.6699 1322.4482,312.6699 Q1322.1045,312.6699 1321.9014,312.4668 Q1321.6982,312.2793 1321.5889,311.7637 Q1321.542,311.4043 1321.3545,311.2168 Q1321.0264,310.8418 1320.417,310.623 Q1319.8076,310.4043 1319.1826,310.4043 Q1318.417,310.4043 1317.7764,310.7324 Q1317.1514,311.0605 1316.6514,311.8105 Q1316.167,312.5605 1316.167,313.5918 L1316.167,314.6855 Q1316.167,315.9199 1317.0576,316.748 Q1317.9482,317.5605 1319.542,317.5605 Q1320.4795,317.5605 1321.1357,317.3105 Q1321.5264,317.1543 1321.9482,316.7168 Q1322.2139,316.4512 1322.3545,316.373 Q1322.5107,316.2949 1322.7139,316.2949 Q1323.042,316.2949 1323.292,316.5605 Q1323.5576,316.8105 1323.5576,317.1543 Q1323.5576,317.498 1323.2139,317.9043 Q1322.7139,318.4824 1321.917,318.8105 Q1320.8389,319.2637 1319.542,319.2637 Q1318.0264,319.2637 1316.8232,318.6387 Q1315.8389,318.1387 1315.1514,317.0762 Q1314.4639,315.998 1314.4639,314.7168 L1314.4639,313.5605 Q1314.4639,312.2324 1315.0732,311.0918 Q1315.6982,309.9355 1316.792,309.3262 Q1317.8857,308.7012 1319.1201,308.7012 Q1319.8545,308.7012 1320.4951,308.873 Q1321.1514,309.0293 1321.6982,309.3887 Z " fill="#000000"/><text fill="#000000" font-family="sans-serif" font-size="14" lengthAdjust="spacing" textLength="47.4619" x="1339.4326" y="319.3105">Objects</text><line style="stroke:#181818;stroke-width:0.5;" x1="1254" x2="1439.8271" y1="329.5137" y2="329.5137"/><line style="stroke:#181818;stroke-width:0.5;" x1="1254" x2="1439.8271" y1="337.5137" y2="337.5137"/><ellipse cx="1264" cy="352.3242" fill="#84BE84" rx="3" ry="3" style="stroke:#038048;stroke-width:1.0;"/><text fill="#000000" font-family="sans-serif" font-size="14" lengthAdjust="spacing" textLength="161.8271" x="1273" y="356.6211">requireNonNull(obj : T) : T</text></g><!--link BrowserApplication to Application--><g id="link_BrowserApplication_Application"><path codeLine="45" d="M554.94,196.3037 C478.39,216.9437 375.09,246.7037 286,279.0137 C270.9,284.4937 271.5174,283.8697 256.4274,290.3297 " fill="none" id="BrowserApplication-to-Application" style="stroke:#181818;stroke-width:1.0;"/><polygon fill="none" points="239.88,297.4137,258.7888,295.8456,254.0661,284.8139,239.88,297.4137" style="stroke:#181818;stroke-width:1.0;"/><text fill="#000000" font-family="sans-serif" font-size="13" lengthAdjust="spacing" textLength="45.5317" x="432" y="245.042">extends</text></g><!--link BrowserApplication to Stage--><g id="link_BrowserApplication_Stage"><path codeLine="46" d="M761.83,200.0637 C824.32,221.7837 907.82,251.3437 981,279.0137 C986.56,281.1137 986.6452,281.1261 992.3752,283.3461 " fill="none" id="BrowserApplication-to-Stage" style="stroke:#181818;stroke-width:1.0;stroke-dasharray:7.0,7.0;"/><polygon fill="#181818" points="997.97,285.5137,991.0229,278.5324,993.3077,283.7073,988.1328,285.9921,997.97,285.5137" style="stroke:#181818;stroke-width:1.0;"/><text fill="#000000" font-family="sans-serif" font-size="13" lengthAdjust="spacing" textLength="27.46" x="896" y="245.042">uses</text></g><!--link BrowserApplication to Scene--><g id="link_BrowserApplication_Scene"><path codeLine="47" d="M691.89,200.3937 C711.12,225.8137 734.2488,256.3597 754.9588,283.7197 " fill="none" id="BrowserApplication-to-Scene" style="stroke:#181818;stroke-width:1.0;stroke-dasharray:7.0,7.0;"/><polygon fill="#181818" points="758.58,288.5037,756.3375,278.9135,755.5623,284.517,749.9588,283.7418,758.58,288.5037" style="stroke:#181818;stroke-width:1.0;"/><text fill="#000000" font-family="sans-serif" font-size="13" lengthAdjust="spacing" textLength="42.6309" x="729" y="245.042">creates</text></g><!--link BrowserApplication to Parent--><g id="link_BrowserApplication_Parent"><path codeLine="48" d="M642.31,200.3937 C618.64,231.9337 587.0925,273.9455 566.1525,301.8355 " fill="none" id="BrowserApplication-to-Parent" style="stroke:#181818;stroke-width:1.0;stroke-dasharray:7.0,7.0;"/><polygon fill="#181818" points="562.55,306.6337,571.1525,301.8381,565.5521,302.6352,564.755,297.0348,562.55,306.6337" style="stroke:#181818;stroke-width:1.0;"/><text fill="#000000" font-family="sans-serif" font-size="13" lengthAdjust="spacing" textLength="31.0781" x="617" y="245.042">loads</text></g><!--link BrowserApplication to FXMLLoader--><g id="link_BrowserApplication_FXMLLoader"><path codeLine="49" d="M610.88,200.2037 C562.34,228.4737 497.7249,266.1042 449.2149,294.3542 " fill="none" id="BrowserApplication-to-FXMLLoader" style="stroke:#181818;stroke-width:1.0;stroke-dasharray:7.0,7.0;"/><polygon fill="#181818" points="444.03,297.3737,453.8203,296.3011,448.3507,294.8575,449.7944,289.3879,444.03,297.3737" style="stroke:#181818;stroke-width:1.0;"/><text fill="#000000" font-family="sans-serif" font-size="13" lengthAdjust="spacing" textLength="27.46" x="553" y="245.042">uses</text></g><!--link BrowserApplication to Objects--><g id="link_BrowserApplication_Objects"><path codeLine="50" d="M779.28,196.0837 C785.27,197.4437 791.2,198.7637 797,200.0137 C990.83,241.6337 1046.87,219.6037 1236,279.0137 C1251.68,283.9437 1262.5691,288.0901 1277.7591,294.9301 " fill="none" id="BrowserApplication-to-Objects" style="stroke:#181818;stroke-width:1.0;stroke-dasharray:7.0,7.0;"/><polygon fill="#181818" points="1283.23,297.3937,1276.666,290.0511,1278.6709,295.3407,1273.3813,297.3456,1283.23,297.3937" style="stroke:#181818;stroke-width:1.0;"/><text fill="#000000" font-family="sans-serif" font-size="13" lengthAdjust="spacing" textLength="83.0908" x="1120" y="245.042">for null checks</text></g><!--SRC=[XLD1Rjim4Bph5OjSeg2nV1UA00cA70etAIeN253qG4bhYp55gkJAhf3cxrsHiYCrjgk3BL8pmzdXxcL5rBXqFc-KqDJMAYbCFNVugqLTuAoKOcr57KMNy0bNKYDGXT28OYFM60t_SC6Sn7MEi4voQtOExGMyH17mCo7UXO-tJQDa8KWQ3OKIpdcaVpi6UV6V- -U38s4fpgW_jR6o5hRpYoj8OMjawP6l-vDlonAq8JxR0Fxc2gKE_blR68TWLdxfHQ56gamGy1mhrnNraFUEqjHJ3hQMB8AQR0UDaPfWPQmN_Yosulu9n1ipEN0o90Tj4mmKo049NO8oedH-JudEj2nbJGttJryMWOawLFHFjh9kZ2KiGuReO2UfWWrsO8tYvL3toCWeyHDHAz7geeg5NJiEDoChzVh7psD11vdUv8Bjevsey4xSMiMqxzyMFVkhi9pLUtxO7xYJBvcFPoJgDs9h31tqhhdaacjEeJHjhl0QAlGNkD-uUgElaJBgE9SA-HBYtjHZpZUy5OnRI4SVGxKtHwpupXit9D9IaiAO-jz3K9EOzi1WErns6gewWglCBZwTycF-Z0LtpiY2vM6L5X-CVcYLYat-pEnbBx6SZaFMO25Nt1Ee_6sxIZOESgGTejwtZiSU6SBPxC_Df5LI7YdYVZp9I9AR8QyKsZFA7ZU4KbWKT1uwz4aQPkKSSjIH_tUm3pRrqwivIIWgB3OkYbwZlm00]--></g></svg>