<svg xmlns="http://www.w3.org/2000/svg" xmlns:xlink="http://www.w3.org/1999/xlink" contentStyleType="text/css" height="807px" preserveAspectRatio="none" style="width:2832px;height:807px;background:#FFFFFF;" version="1.1" viewBox="0 0 2832 807" width="2832px" zoomAndPan="magnify"><defs/><g><!--cluster com--><g id="cluster_com"><path d="M8.5,6.0137 L38.2861,6.0137 A3.75,3.75 0 0 1 40.7861,8.5137 L47.7861,30.6348 L2822.5,30.6348 A2.5,2.5 0 0 1 2825,33.1348 L2825,797.5137 A2.5,2.5 0 0 1 2822.5,800.0137 L8.5,800.0137 A2.5,2.5 0 0 1 6,797.5137 L6,8.5137 A2.5,2.5 0 0 1 8.5,6.0137 " fill="none" style="stroke:#000000;stroke-width:1.5;"/><line style="stroke:#000000;stroke-width:1.5;" x1="6" x2="47.7861" y1="30.6348" y2="30.6348"/><text fill="#000000" font-family="sans-serif" font-size="14" font-weight="bold" lengthAdjust="spacing" textLength="28.7861" x="10" y="23.1211">com</text></g><!--cluster system--><g id="cluster_system"><path d="M32.5,51.0137 L81.7549,51.0137 A3.75,3.75 0 0 1 84.2549,53.5137 L91.2549,75.6348 L2798.5,75.6348 A2.5,2.5 0 0 1 2801,78.1348 L2801,773.5137 A2.5,2.5 0 0 1 2798.5,776.0137 L32.5,776.0137 A2.5,2.5 0 0 1 30,773.5137 L30,53.5137 A2.5,2.5 0 0 1 32.5,51.0137 " fill="none" style="stroke:#000000;stroke-width:1.5;"/><line style="stroke:#000000;stroke-width:1.5;" x1="30" x2="91.2549" y1="75.6348" y2="75.6348"/><text fill="#000000" font-family="sans-serif" font-size="14" font-weight="bold" lengthAdjust="spacing" textLength="48.2549" x="34" y="68.1211">system</text></g><!--cluster browser--><g id="cluster_browser"><path d="M56.5,96.0137 L111.9619,96.0137 A3.75,3.75 0 0 1 114.4619,98.5137 L121.4619,120.6348 L2774.5,120.6348 A2.5,2.5 0 0 1 2777,123.1348 L2777,749.5137 A2.5,2.5 0 0 1 2774.5,752.0137 L56.5,752.0137 A2.5,2.5 0 0 1 54,749.5137 L54,98.5137 A2.5,2.5 0 0 1 56.5,96.0137 " fill="none" style="stroke:#000000;stroke-width:1.5;"/><line style="stroke:#000000;stroke-width:1.5;" x1="54" x2="121.4619" y1="120.6348" y2="120.6348"/><text fill="#000000" font-family="sans-serif" font-size="14" font-weight="bold" lengthAdjust="spacing" textLength="54.4619" x="58" y="113.1211">browser</text></g><!--class BrowserController--><g id="elem_BrowserController"><rect codeLine="7" fill="#F1F1F1" height="401.8008" id="BrowserController" rx="2.5" ry="2.5" style="stroke:#181818;stroke-width:0.5;" width="359.0127" x="1435.5" y="133.0137"/><ellipse cx="1554.7393" cy="149.0137" fill="#ADD1B2" rx="11" ry="11" style="stroke:#181818;stroke-width:1.0;"/><path d="M1557.5049,144.8887 Q1557.6611,144.6699 1557.8486,144.5605 Q1558.0361,144.4512 1558.2549,144.4512 Q1558.6299,144.4512 1558.8643,144.7168 Q1559.0986,144.9668 1559.0986,145.5762 L1559.0986,147.0293 Q1559.0986,147.6387 1558.8643,147.9043 Q1558.6299,148.1699 1558.2549,148.1699 Q1557.9111,148.1699 1557.708,147.9668 Q1557.5049,147.7793 1557.3955,147.2637 Q1557.3486,146.9043 1557.1611,146.7168 Q1556.833,146.3418 1556.2236,146.123 Q1555.6143,145.9043 1554.9893,145.9043 Q1554.2236,145.9043 1553.583,146.2324 Q1552.958,146.5605 1552.458,147.3105 Q1551.9736,148.0605 1551.9736,149.0918 L1551.9736,150.1855 Q1551.9736,151.4199 1552.8643,152.248 Q1553.7549,153.0605 1555.3486,153.0605 Q1556.2861,153.0605 1556.9424,152.8105 Q1557.333,152.6543 1557.7549,152.2168 Q1558.0205,151.9512 1558.1611,151.873 Q1558.3174,151.7949 1558.5205,151.7949 Q1558.8486,151.7949 1559.0986,152.0605 Q1559.3643,152.3105 1559.3643,152.6543 Q1559.3643,152.998 1559.0205,153.4043 Q1558.5205,153.9824 1557.7236,154.3105 Q1556.6455,154.7637 1555.3486,154.7637 Q1553.833,154.7637 1552.6299,154.1387 Q1551.6455,153.6387 1550.958,152.5762 Q1550.2705,151.498 1550.2705,150.2168 L1550.2705,149.0605 Q1550.2705,147.7324 1550.8799,146.5918 Q1551.5049,145.4355 1552.5986,144.8262 Q1553.6924,144.2012 1554.9268,144.2012 Q1555.6611,144.2012 1556.3018,144.373 Q1556.958,144.5293 1557.5049,144.8887 Z " fill="#000000"/><text fill="#000000" font-family="sans-serif" font-size="14" lengthAdjust="spacing" textLength="112.0342" x="1575.2393" y="154.8105">BrowserController</text><line style="stroke:#181818;stroke-width:0.5;" x1="1436.5" x2="1793.5127" y1="165.0137" y2="165.0137"/><rect fill="none" height="6" style="stroke:#C82930;stroke-width:1.0;" width="6" x="1443.5" y="176.8242"/><text fill="#000000" font-family="sans-serif" font-size="14" lengthAdjust="spacing" textLength="285.5439" x="1455.5" y="184.1211">EXTERNAL_BROWSER_URLS : List&lt;String&gt;</text><rect fill="none" height="6" style="stroke:#C82930;stroke-width:1.0;" width="6" x="1443.5" y="195.4453"/><text fill="#000000" font-family="sans-serif" font-size="14" lengthAdjust="spacing" textLength="141.6064" x="1455.5" y="202.7422">searchField : TextField</text><ellipse cx="1446.5" cy="217.0664" fill="none" rx="3" ry="3" style="stroke:#038048;stroke-width:1.0;"/><text fill="#000000" font-family="sans-serif" font-size="14" lengthAdjust="spacing" textLength="120.6475" x="1455.5" y="221.3633">tabPane : TabPane</text><rect fill="none" height="6" style="stroke:#C82930;stroke-width:1.0;" width="6" x="1443.5" y="232.6875"/><text fill="#000000" font-family="sans-serif" font-size="14" lengthAdjust="spacing" textLength="140.834" x="1455.5" y="239.9844">addressBar : TextField</text><rect fill="none" height="6" style="stroke:#C82930;stroke-width:1.0;" width="6" x="1443.5" y="251.3086"/><text fill="#000000" font-family="sans-serif" font-size="14" lengthAdjust="spacing" textLength="123.7168" x="1455.5" y="258.6055">profiler : AppProfiler</text><line style="stroke:#181818;stroke-width:1.0;" x1="1436.5" x2="1793.5127" y1="266.1191" y2="266.1191"/><rect fill="#F24D5C" height="6" style="stroke:#C82930;stroke-width:1.0;" width="6" x="1443.5" y="277.9297"/><text fill="#000000" font-family="sans-serif" font-size="14" lengthAdjust="spacing" textLength="270.04" x="1455.5" y="285.2266">handleKeyPressed(event : KeyEvent) : void</text><ellipse cx="1446.5" cy="299.5508" fill="#84BE84" rx="3" ry="3" style="stroke:#038048;stroke-width:1.0;"/><text fill="#000000" font-family="sans-serif" font-size="14" lengthAdjust="spacing" textLength="133.0684" x="1455.5" y="303.8477">searchInPage() : void</text><rect fill="#F24D5C" height="6" style="stroke:#C82930;stroke-width:1.0;" width="6" x="1443.5" y="315.1719"/><text fill="#000000" font-family="sans-serif" font-size="14" lengthAdjust="spacing" textLength="324.502" x="1455.5" y="322.4688">shouldOpenInExternalBrowser(url : String) : boolean</text><ellipse cx="1446.5" cy="336.793" fill="#84BE84" rx="3" ry="3" style="stroke:#038048;stroke-width:1.0;"/><text fill="#000000" font-family="sans-serif" font-size="14" lengthAdjust="spacing" textLength="280.1436" x="1455.5" y="341.0898">openInExternalBrowser(url : String) : boolean</text><ellipse cx="1446.5" cy="355.4141" fill="#84BE84" rx="3" ry="3" style="stroke:#038048;stroke-width:1.0;"/><text fill="#000000" font-family="sans-serif" font-size="14" lengthAdjust="spacing" textLength="185.9648" x="1455.5" y="359.7109">addNewTab(url : String) : void</text><ellipse cx="1446.5" cy="374.0352" fill="#84BE84" rx="3" ry="3" style="stroke:#038048;stroke-width:1.0;"/><text fill="#000000" font-family="sans-serif" font-size="14" lengthAdjust="spacing" textLength="132.2822" x="1455.5" y="378.332">openInFirefox() : void</text><ellipse cx="1446.5" cy="392.6563" fill="#84BE84" rx="3" ry="3" style="stroke:#038048;stroke-width:1.0;"/><text fill="#000000" font-family="sans-serif" font-size="14" lengthAdjust="spacing" textLength="96.4756" x="1455.5" y="396.9531">initialize() : void</text><rect fill="#F24D5C" height="6" style="stroke:#C82930;stroke-width:1.0;" width="6" x="1443.5" y="408.2773"/><text fill="#000000" font-family="sans-serif" font-size="14" lengthAdjust="spacing" textLength="333.0127" x="1455.5" y="415.5742">showErrorDialog(title : String, message : String) : void</text><rect fill="#F24D5C" height="6" style="stroke:#C82930;stroke-width:1.0;" width="6" x="1443.5" y="426.8984"/><text fill="#000000" font-family="sans-serif" font-size="14" lengthAdjust="spacing" textLength="212.4063" x="1455.5" y="434.1953">addNewTabWithDefaultUrl() : void</text><rect fill="#F24D5C" height="6" style="stroke:#C82930;stroke-width:1.0;" width="6" x="1443.5" y="445.5195"/><text fill="#000000" font-family="sans-serif" font-size="14" lengthAdjust="spacing" textLength="251.2959" x="1455.5" y="452.8164">extractWebsiteName(url : String) : String</text><rect fill="#F24D5C" height="6" style="stroke:#C82930;stroke-width:1.0;" width="6" x="1443.5" y="464.1406"/><text fill="#000000" font-family="sans-serif" font-size="14" lengthAdjust="spacing" textLength="223.3096" x="1455.5" y="471.4375">openUrlInNewTab(url : String) : void</text><rect fill="#F24D5C" height="6" style="stroke:#C82930;stroke-width:1.0;" width="6" x="1443.5" y="482.7617"/><text fill="#000000" font-family="sans-serif" font-size="14" lengthAdjust="spacing" textLength="130.7305" x="1455.5" y="490.0586">navigateBack() : void</text><rect fill="#F24D5C" height="6" style="stroke:#C82930;stroke-width:1.0;" width="6" x="1443.5" y="501.3828"/><text fill="#000000" font-family="sans-serif" font-size="14" lengthAdjust="spacing" textLength="150.9512" x="1455.5" y="508.6797">navigateForward() : void</text><rect fill="#F24D5C" height="6" style="stroke:#C82930;stroke-width:1.0;" width="6" x="1443.5" y="520.0039"/><text fill="#000000" font-family="sans-serif" font-size="14" lengthAdjust="spacing" textLength="122.9443" x="1455.5" y="527.3008">refreshPage() : void</text></g><!--class AppLogger--><g id="elem_AppLogger"><rect codeLine="31" fill="#F1F1F1" height="85.2422" id="AppLogger" rx="2.5" ry="2.5" style="stroke:#181818;stroke-width:0.5;" width="216.6133" x="70.5" y="632.5137"/><ellipse cx="140.3052" cy="648.5137" fill="#ADD1B2" rx="11" ry="11" style="stroke:#181818;stroke-width:1.0;"/><path d="M143.0708,644.3887 Q143.2271,644.1699 143.4146,644.0605 Q143.6021,643.9512 143.8208,643.9512 Q144.1958,643.9512 144.4302,644.2168 Q144.6646,644.4668 144.6646,645.0762 L144.6646,646.5293 Q144.6646,647.1387 144.4302,647.4043 Q144.1958,647.6699 143.8208,647.6699 Q143.4771,647.6699 143.2739,647.4668 Q143.0708,647.2793 142.9614,646.7637 Q142.9146,646.4043 142.7271,646.2168 Q142.3989,645.8418 141.7896,645.623 Q141.1802,645.4043 140.5552,645.4043 Q139.7896,645.4043 139.1489,645.7324 Q138.5239,646.0605 138.0239,646.8105 Q137.5396,647.5605 137.5396,648.5918 L137.5396,649.6855 Q137.5396,650.9199 138.4302,651.748 Q139.3208,652.5605 140.9146,652.5605 Q141.8521,652.5605 142.5083,652.3105 Q142.8989,652.1543 143.3208,651.7168 Q143.5864,651.4512 143.7271,651.373 Q143.8833,651.2949 144.0864,651.2949 Q144.4146,651.2949 144.6646,651.5605 Q144.9302,651.8105 144.9302,652.1543 Q144.9302,652.498 144.5864,652.9043 Q144.0864,653.4824 143.2896,653.8105 Q142.2114,654.2637 140.9146,654.2637 Q139.3989,654.2637 138.1958,653.6387 Q137.2114,653.1387 136.5239,652.0762 Q135.8364,650.998 135.8364,649.7168 L135.8364,648.5605 Q135.8364,647.2324 136.4458,646.0918 Q137.0708,644.9355 138.1646,644.3262 Q139.2583,643.7012 140.4927,643.7012 Q141.2271,643.7012 141.8677,643.873 Q142.5239,644.0293 143.0708,644.3887 Z " fill="#000000"/><text fill="#000000" font-family="sans-serif" font-size="14" lengthAdjust="spacing" textLength="68.5029" x="160.8052" y="654.3105">AppLogger</text><line style="stroke:#181818;stroke-width:0.5;" x1="71.5" x2="286.1133" y1="664.5137" y2="664.5137"/><line style="stroke:#181818;stroke-width:0.5;" x1="71.5" x2="286.1133" y1="672.5137" y2="672.5137"/><ellipse cx="81.5" cy="687.3242" fill="#84BE84" rx="3" ry="3" style="stroke:#038048;stroke-width:1.0;"/><text fill="#000000" font-family="sans-serif" font-size="14" lengthAdjust="spacing" textLength="183.627" x="90.5" y="691.6211">info(message : String, ...args)</text><ellipse cx="81.5" cy="705.9453" fill="#84BE84" rx="3" ry="3" style="stroke:#038048;stroke-width:1.0;"/><text fill="#000000" font-family="sans-serif" font-size="14" lengthAdjust="spacing" textLength="190.6133" x="90.5" y="710.2422">error(message : String, ...args)</text></g><!--class AppProfiler--><g id="elem_AppProfiler"><rect codeLine="35" fill="#F1F1F1" height="103.8633" id="AppProfiler" rx="2.5" ry="2.5" style="stroke:#181818;stroke-width:0.5;" width="259.4404" x="322.5" y="623.0137"/><ellipse cx="413.3428" cy="639.0137" fill="#ADD1B2" rx="11" ry="11" style="stroke:#181818;stroke-width:1.0;"/><path d="M416.1084,634.8887 Q416.2646,634.6699 416.4521,634.5605 Q416.6396,634.4512 416.8584,634.4512 Q417.2334,634.4512 417.4678,634.7168 Q417.7021,634.9668 417.7021,635.5762 L417.7021,637.0293 Q417.7021,637.6387 417.4678,637.9043 Q417.2334,638.1699 416.8584,638.1699 Q416.5146,638.1699 416.3115,637.9668 Q416.1084,637.7793 415.999,637.2637 Q415.9521,636.9043 415.7646,636.7168 Q415.4365,636.3418 414.8271,636.123 Q414.2178,635.9043 413.5928,635.9043 Q412.8271,635.9043 412.1865,636.2324 Q411.5615,636.5605 411.0615,637.3105 Q410.5771,638.0605 410.5771,639.0918 L410.5771,640.1855 Q410.5771,641.4199 411.4678,642.248 Q412.3584,643.0605 413.9521,643.0605 Q414.8896,643.0605 415.5459,642.8105 Q415.9365,642.6543 416.3584,642.2168 Q416.624,641.9512 416.7646,641.873 Q416.9209,641.7949 417.124,641.7949 Q417.4521,641.7949 417.7021,642.0605 Q417.9678,642.3105 417.9678,642.6543 Q417.9678,642.998 417.624,643.4043 Q417.124,643.9824 416.3271,644.3105 Q415.249,644.7637 413.9521,644.7637 Q412.4365,644.7637 411.2334,644.1387 Q410.249,643.6387 409.5615,642.5762 Q408.874,641.498 408.874,640.2168 L408.874,639.0605 Q408.874,637.7324 409.4834,636.5918 Q410.1084,635.4355 411.2021,634.8262 Q412.2959,634.2012 413.5303,634.2012 Q414.2646,634.2012 414.9053,634.373 Q415.5615,634.5293 416.1084,634.8887 Z " fill="#000000"/><text fill="#000000" font-family="sans-serif" font-size="14" lengthAdjust="spacing" textLength="69.2549" x="433.8428" y="644.8105">AppProfiler</text><line style="stroke:#181818;stroke-width:0.5;" x1="323.5" x2="580.9404" y1="655.0137" y2="655.0137"/><line style="stroke:#181818;stroke-width:0.5;" x1="323.5" x2="580.9404" y1="663.0137" y2="663.0137"/><ellipse cx="333.5" cy="677.8242" fill="#84BE84" rx="3" ry="3" style="stroke:#038048;stroke-width:1.0;"/><text fill="#000000" font-family="sans-serif" font-size="14" lengthAdjust="spacing" textLength="151.7236" x="342.5" y="682.1211">start(label : String) : void</text><ellipse cx="333.5" cy="696.4453" fill="#84BE84" rx="3" ry="3" style="stroke:#038048;stroke-width:1.0;"/><text fill="#000000" font-family="sans-serif" font-size="14" lengthAdjust="spacing" textLength="73.1377" x="342.5" y="700.7422">stop() : void</text><ellipse cx="333.5" cy="715.0664" fill="#84BE84" rx="3" ry="3" style="stroke:#038048;stroke-width:1.0;"/><text fill="#000000" font-family="sans-serif" font-size="14" lengthAdjust="spacing" textLength="233.4404" x="342.5" y="719.3633">logProfilingResult(label : String) : void</text></g><!--class TextField--><g id="elem_TextField"><rect codeLine="42" fill="#F1F1F1" height="122.4844" id="TextField" rx="2.5" ry="2.5" style="stroke:#181818;stroke-width:0.5;" width="232.9922" x="616.5" y="614.0137"/><ellipse cx="699.96" cy="630.0137" fill="#ADD1B2" rx="11" ry="11" style="stroke:#181818;stroke-width:1.0;"/><path d="M702.7256,625.8887 Q702.8818,625.6699 703.0693,625.5605 Q703.2568,625.4512 703.4756,625.4512 Q703.8506,625.4512 704.085,625.7168 Q704.3193,625.9668 704.3193,626.5762 L704.3193,628.0293 Q704.3193,628.6387 704.085,628.9043 Q703.8506,629.1699 703.4756,629.1699 Q703.1318,629.1699 702.9287,628.9668 Q702.7256,628.7793 702.6162,628.2637 Q702.5693,627.9043 702.3818,627.7168 Q702.0537,627.3418 701.4443,627.123 Q700.835,626.9043 700.21,626.9043 Q699.4443,626.9043 698.8037,627.2324 Q698.1787,627.5605 697.6787,628.3105 Q697.1943,629.0605 697.1943,630.0918 L697.1943,631.1855 Q697.1943,632.4199 698.085,633.248 Q698.9756,634.0605 700.5693,634.0605 Q701.5068,634.0605 702.1631,633.8105 Q702.5537,633.6543 702.9756,633.2168 Q703.2412,632.9512 703.3818,632.873 Q703.5381,632.7949 703.7412,632.7949 Q704.0693,632.7949 704.3193,633.0605 Q704.585,633.3105 704.585,633.6543 Q704.585,633.998 704.2412,634.4043 Q703.7412,634.9824 702.9443,635.3105 Q701.8662,635.7637 700.5693,635.7637 Q699.0537,635.7637 697.8506,635.1387 Q696.8662,634.6387 696.1787,633.5762 Q695.4912,632.498 695.4912,631.2168 L695.4912,630.0605 Q695.4912,628.7324 696.1006,627.5918 Q696.7256,626.4355 697.8193,625.8262 Q698.9131,625.2012 700.1475,625.2012 Q700.8818,625.2012 701.5225,625.373 Q702.1787,625.5293 702.7256,625.8887 Z " fill="#000000"/><text fill="#000000" font-family="sans-serif" font-size="14" lengthAdjust="spacing" textLength="57.5723" x="720.46" y="635.8105">TextField</text><line style="stroke:#181818;stroke-width:0.5;" x1="617.5" x2="848.4922" y1="646.0137" y2="646.0137"/><line style="stroke:#181818;stroke-width:0.5;" x1="617.5" x2="848.4922" y1="654.0137" y2="654.0137"/><ellipse cx="627.5" cy="668.8242" fill="#84BE84" rx="3" ry="3" style="stroke:#038048;stroke-width:1.0;"/><text fill="#000000" font-family="sans-serif" font-size="14" lengthAdjust="spacing" textLength="163.3857" x="636.5" y="673.1211">setText(text : String) : void</text><ellipse cx="627.5" cy="687.4453" fill="#84BE84" rx="3" ry="3" style="stroke:#038048;stroke-width:1.0;"/><text fill="#000000" font-family="sans-serif" font-size="14" lengthAdjust="spacing" textLength="104.2549" x="636.5" y="691.7422">getText() : String</text><ellipse cx="627.5" cy="706.0664" fill="#84BE84" rx="3" ry="3" style="stroke:#038048;stroke-width:1.0;"/><text fill="#000000" font-family="sans-serif" font-size="14" lengthAdjust="spacing" textLength="206.9922" x="636.5" y="710.3633">setVisible(visible : boolean) : void</text><ellipse cx="627.5" cy="724.6875" fill="#84BE84" rx="3" ry="3" style="stroke:#038048;stroke-width:1.0;"/><text fill="#000000" font-family="sans-serif" font-size="14" lengthAdjust="spacing" textLength="131.4961" x="636.5" y="728.9844">requestFocus() : void</text></g><!--class TabPane--><g id="elem_TabPane"><rect codeLine="49" fill="#F1F1F1" height="103.8633" id="TabPane" rx="2.5" ry="2.5" style="stroke:#181818;stroke-width:0.5;" width="457.8877" x="885" y="623.0137"/><ellipse cx="1081.2837" cy="639.0137" fill="#ADD1B2" rx="11" ry="11" style="stroke:#181818;stroke-width:1.0;"/><path d="M1084.0493,634.8887 Q1084.2056,634.6699 1084.3931,634.5605 Q1084.5806,634.4512 1084.7993,634.4512 Q1085.1743,634.4512 1085.4087,634.7168 Q1085.6431,634.9668 1085.6431,635.5762 L1085.6431,637.0293 Q1085.6431,637.6387 1085.4087,637.9043 Q1085.1743,638.1699 1084.7993,638.1699 Q1084.4556,638.1699 1084.2524,637.9668 Q1084.0493,637.7793 1083.9399,637.2637 Q1083.8931,636.9043 1083.7056,636.7168 Q1083.3774,636.3418 1082.7681,636.123 Q1082.1587,635.9043 1081.5337,635.9043 Q1080.7681,635.9043 1080.1274,636.2324 Q1079.5024,636.5605 1079.0024,637.3105 Q1078.5181,638.0605 1078.5181,639.0918 L1078.5181,640.1855 Q1078.5181,641.4199 1079.4087,642.248 Q1080.2993,643.0605 1081.8931,643.0605 Q1082.8306,643.0605 1083.4868,642.8105 Q1083.8774,642.6543 1084.2993,642.2168 Q1084.5649,641.9512 1084.7056,641.873 Q1084.8618,641.7949 1085.0649,641.7949 Q1085.3931,641.7949 1085.6431,642.0605 Q1085.9087,642.3105 1085.9087,642.6543 Q1085.9087,642.998 1085.5649,643.4043 Q1085.0649,643.9824 1084.2681,644.3105 Q1083.1899,644.7637 1081.8931,644.7637 Q1080.3774,644.7637 1079.1743,644.1387 Q1078.1899,643.6387 1077.5024,642.5762 Q1076.8149,641.498 1076.8149,640.2168 L1076.8149,639.0605 Q1076.8149,637.7324 1077.4243,636.5918 Q1078.0493,635.4355 1079.1431,634.8262 Q1080.2368,634.2012 1081.4712,634.2012 Q1082.2056,634.2012 1082.8462,634.373 Q1083.5024,634.5293 1084.0493,634.8887 Z " fill="#000000"/><text fill="#000000" font-family="sans-serif" font-size="14" lengthAdjust="spacing" textLength="56.8203" x="1101.7837" y="644.8105">TabPane</text><line style="stroke:#181818;stroke-width:0.5;" x1="886" x2="1341.8877" y1="655.0137" y2="655.0137"/><line style="stroke:#181818;stroke-width:0.5;" x1="886" x2="1341.8877" y1="663.0137" y2="663.0137"/><ellipse cx="896" cy="677.8242" fill="#84BE84" rx="3" ry="3" style="stroke:#038048;stroke-width:1.0;"/><text fill="#000000" font-family="sans-serif" font-size="14" lengthAdjust="spacing" textLength="231.9023" x="905" y="682.1211">getSelectionModel() : SelectionModel</text><ellipse cx="896" cy="696.4453" fill="#84BE84" rx="3" ry="3" style="stroke:#038048;stroke-width:1.0;"/><text fill="#000000" font-family="sans-serif" font-size="14" lengthAdjust="spacing" textLength="205.4336" x="905" y="700.7422">getTabs() : ObservableList&lt;Tab&gt;</text><ellipse cx="896" cy="715.0664" fill="#84BE84" rx="3" ry="3" style="stroke:#038048;stroke-width:1.0;"/><text fill="#000000" font-family="sans-serif" font-size="14" lengthAdjust="spacing" textLength="431.8877" x="905" y="719.3633">addEventFilter(eventType : EventType, handler : EventHandler) : void</text></g><!--class Tab--><g id="elem_Tab"><rect codeLine="55" fill="#F1F1F1" height="103.8633" id="Tab" rx="2.5" ry="2.5" style="stroke:#181818;stroke-width:0.5;" width="231.4473" x="1378.5" y="623.0137"/><ellipse cx="1477.9116" cy="639.0137" fill="#ADD1B2" rx="11" ry="11" style="stroke:#181818;stroke-width:1.0;"/><path d="M1480.6772,634.8887 Q1480.8335,634.6699 1481.021,634.5605 Q1481.2085,634.4512 1481.4272,634.4512 Q1481.8022,634.4512 1482.0366,634.7168 Q1482.271,634.9668 1482.271,635.5762 L1482.271,637.0293 Q1482.271,637.6387 1482.0366,637.9043 Q1481.8022,638.1699 1481.4272,638.1699 Q1481.0835,638.1699 1480.8804,637.9668 Q1480.6772,637.7793 1480.5679,637.2637 Q1480.521,636.9043 1480.3335,636.7168 Q1480.0054,636.3418 1479.396,636.123 Q1478.7866,635.9043 1478.1616,635.9043 Q1477.396,635.9043 1476.7554,636.2324 Q1476.1304,636.5605 1475.6304,637.3105 Q1475.146,638.0605 1475.146,639.0918 L1475.146,640.1855 Q1475.146,641.4199 1476.0366,642.248 Q1476.9272,643.0605 1478.521,643.0605 Q1479.4585,643.0605 1480.1147,642.8105 Q1480.5054,642.6543 1480.9272,642.2168 Q1481.1929,641.9512 1481.3335,641.873 Q1481.4897,641.7949 1481.6929,641.7949 Q1482.021,641.7949 1482.271,642.0605 Q1482.5366,642.3105 1482.5366,642.6543 Q1482.5366,642.998 1482.1929,643.4043 Q1481.6929,643.9824 1480.896,644.3105 Q1479.8179,644.7637 1478.521,644.7637 Q1477.0054,644.7637 1475.8022,644.1387 Q1474.8179,643.6387 1474.1304,642.5762 Q1473.4429,641.498 1473.4429,640.2168 L1473.4429,639.0605 Q1473.4429,637.7324 1474.0522,636.5918 Q1474.6772,635.4355 1475.771,634.8262 Q1476.8647,634.2012 1478.0991,634.2012 Q1478.8335,634.2012 1479.4741,634.373 Q1480.1304,634.5293 1480.6772,634.8887 Z " fill="#000000"/><text fill="#000000" font-family="sans-serif" font-size="14" lengthAdjust="spacing" textLength="24.124" x="1498.4116" y="644.8105">Tab</text><line style="stroke:#181818;stroke-width:0.5;" x1="1379.5" x2="1608.9473" y1="655.0137" y2="655.0137"/><line style="stroke:#181818;stroke-width:0.5;" x1="1379.5" x2="1608.9473" y1="663.0137" y2="663.0137"/><ellipse cx="1389.5" cy="677.8242" fill="#84BE84" rx="3" ry="3" style="stroke:#038048;stroke-width:1.0;"/><text fill="#000000" font-family="sans-serif" font-size="14" lengthAdjust="spacing" textLength="205.4473" x="1398.5" y="682.1211">setContent(content : Node) : void</text><ellipse cx="1389.5" cy="696.4453" fill="#84BE84" rx="3" ry="3" style="stroke:#038048;stroke-width:1.0;"/><text fill="#000000" font-family="sans-serif" font-size="14" lengthAdjust="spacing" textLength="104.2549" x="1398.5" y="700.7422">getText() : String</text><ellipse cx="1389.5" cy="715.0664" fill="#84BE84" rx="3" ry="3" style="stroke:#038048;stroke-width:1.0;"/><text fill="#000000" font-family="sans-serif" font-size="14" lengthAdjust="spacing" textLength="163.3857" x="1398.5" y="719.3633">setText(text : String) : void</text></g><!--class WebView--><g id="elem_WebView"><rect codeLine="61" fill="#F1F1F1" height="66.6211" id="WebView" rx="2.5" ry="2.5" style="stroke:#181818;stroke-width:0.5;" width="182.4268" x="1645" y="641.5137"/><ellipse cx="1702.3979" cy="657.5137" fill="#ADD1B2" rx="11" ry="11" style="stroke:#181818;stroke-width:1.0;"/><path d="M1705.1636,653.3887 Q1705.3198,653.1699 1705.5073,653.0605 Q1705.6948,652.9512 1705.9136,652.9512 Q1706.2886,652.9512 1706.5229,653.2168 Q1706.7573,653.4668 1706.7573,654.0762 L1706.7573,655.5293 Q1706.7573,656.1387 1706.5229,656.4043 Q1706.2886,656.6699 1705.9136,656.6699 Q1705.5698,656.6699 1705.3667,656.4668 Q1705.1636,656.2793 1705.0542,655.7637 Q1705.0073,655.4043 1704.8198,655.2168 Q1704.4917,654.8418 1703.8823,654.623 Q1703.2729,654.4043 1702.6479,654.4043 Q1701.8823,654.4043 1701.2417,654.7324 Q1700.6167,655.0605 1700.1167,655.8105 Q1699.6323,656.5605 1699.6323,657.5918 L1699.6323,658.6855 Q1699.6323,659.9199 1700.5229,660.748 Q1701.4136,661.5605 1703.0073,661.5605 Q1703.9448,661.5605 1704.6011,661.3105 Q1704.9917,661.1543 1705.4136,660.7168 Q1705.6792,660.4512 1705.8198,660.373 Q1705.9761,660.2949 1706.1792,660.2949 Q1706.5073,660.2949 1706.7573,660.5605 Q1707.0229,660.8105 1707.0229,661.1543 Q1707.0229,661.498 1706.6792,661.9043 Q1706.1792,662.4824 1705.3823,662.8105 Q1704.3042,663.2637 1703.0073,663.2637 Q1701.4917,663.2637 1700.2886,662.6387 Q1699.3042,662.1387 1698.6167,661.0762 Q1697.9292,659.998 1697.9292,658.7168 L1697.9292,657.5605 Q1697.9292,656.2324 1698.5386,655.0918 Q1699.1636,653.9355 1700.2573,653.3262 Q1701.3511,652.7012 1702.5854,652.7012 Q1703.3198,652.7012 1703.9604,652.873 Q1704.6167,653.0293 1705.1636,653.3887 Z " fill="#000000"/><text fill="#000000" font-family="sans-serif" font-size="14" lengthAdjust="spacing" textLength="59.1309" x="1722.8979" y="663.3105">WebView</text><line style="stroke:#181818;stroke-width:0.5;" x1="1646" x2="1826.4268" y1="673.5137" y2="673.5137"/><line style="stroke:#181818;stroke-width:0.5;" x1="1646" x2="1826.4268" y1="681.5137" y2="681.5137"/><ellipse cx="1656" cy="696.3242" fill="#84BE84" rx="3" ry="3" style="stroke:#038048;stroke-width:1.0;"/><text fill="#000000" font-family="sans-serif" font-size="14" lengthAdjust="spacing" textLength="156.4268" x="1665" y="700.6211">getEngine() : WebEngine</text></g><!--class WebEngine--><g id="elem_WebEngine"><rect codeLine="65" fill="#F1F1F1" height="103.8633" id="WebEngine" rx="2.5" ry="2.5" style="stroke:#181818;stroke-width:0.5;" width="253.9648" x="1862" y="623.0137"/><ellipse cx="1948.543" cy="639.0137" fill="#ADD1B2" rx="11" ry="11" style="stroke:#181818;stroke-width:1.0;"/><path d="M1951.3086,634.8887 Q1951.4648,634.6699 1951.6523,634.5605 Q1951.8398,634.4512 1952.0586,634.4512 Q1952.4336,634.4512 1952.668,634.7168 Q1952.9023,634.9668 1952.9023,635.5762 L1952.9023,637.0293 Q1952.9023,637.6387 1952.668,637.9043 Q1952.4336,638.1699 1952.0586,638.1699 Q1951.7148,638.1699 1951.5117,637.9668 Q1951.3086,637.7793 1951.1992,637.2637 Q1951.1523,636.9043 1950.9648,636.7168 Q1950.6367,636.3418 1950.0273,636.123 Q1949.418,635.9043 1948.793,635.9043 Q1948.0273,635.9043 1947.3867,636.2324 Q1946.7617,636.5605 1946.2617,637.3105 Q1945.7773,638.0605 1945.7773,639.0918 L1945.7773,640.1855 Q1945.7773,641.4199 1946.668,642.248 Q1947.5586,643.0605 1949.1523,643.0605 Q1950.0898,643.0605 1950.7461,642.8105 Q1951.1367,642.6543 1951.5586,642.2168 Q1951.8242,641.9512 1951.9648,641.873 Q1952.1211,641.7949 1952.3242,641.7949 Q1952.6523,641.7949 1952.9023,642.0605 Q1953.168,642.3105 1953.168,642.6543 Q1953.168,642.998 1952.8242,643.4043 Q1952.3242,643.9824 1951.5273,644.3105 Q1950.4492,644.7637 1949.1523,644.7637 Q1947.6367,644.7637 1946.4336,644.1387 Q1945.4492,643.6387 1944.7617,642.5762 Q1944.0742,641.498 1944.0742,640.2168 L1944.0742,639.0605 Q1944.0742,637.7324 1944.6836,636.5918 Q1945.3086,635.4355 1946.4023,634.8262 Q1947.4961,634.2012 1948.7305,634.2012 Q1949.4648,634.2012 1950.1055,634.373 Q1950.7617,634.5293 1951.3086,634.8887 Z " fill="#000000"/><text fill="#000000" font-family="sans-serif" font-size="14" lengthAdjust="spacing" textLength="72.3789" x="1969.043" y="644.8105">WebEngine</text><line style="stroke:#181818;stroke-width:0.5;" x1="1863" x2="2114.9648" y1="655.0137" y2="655.0137"/><line style="stroke:#181818;stroke-width:0.5;" x1="1863" x2="2114.9648" y1="663.0137" y2="663.0137"/><ellipse cx="1873" cy="677.8242" fill="#84BE84" rx="3" ry="3" style="stroke:#038048;stroke-width:1.0;"/><text fill="#000000" font-family="sans-serif" font-size="14" lengthAdjust="spacing" textLength="136.9443" x="1882" y="682.1211">load(url : String) : void</text><ellipse cx="1873" cy="696.4453" fill="#84BE84" rx="3" ry="3" style="stroke:#038048;stroke-width:1.0;"/><text fill="#000000" font-family="sans-serif" font-size="14" lengthAdjust="spacing" textLength="161.8203" x="1882" y="700.7422">getLoadWorker() : Worker</text><ellipse cx="1873" cy="715.0664" fill="#84BE84" rx="3" ry="3" style="stroke:#038048;stroke-width:1.0;"/><text fill="#000000" font-family="sans-serif" font-size="14" lengthAdjust="spacing" textLength="227.9648" x="1882" y="719.3633">executeScript(script : String) : Object</text></g><!--class KeyEvent--><g id="elem_KeyEvent"><rect codeLine="72" fill="#F1F1F1" height="85.2422" id="KeyEvent" rx="2.5" ry="2.5" style="stroke:#181818;stroke-width:0.5;" width="187.8545" x="2151" y="632.5137"/><ellipse cx="2210.7153" cy="648.5137" fill="#ADD1B2" rx="11" ry="11" style="stroke:#181818;stroke-width:1.0;"/><path d="M2213.481,644.3887 Q2213.6372,644.1699 2213.8247,644.0605 Q2214.0122,643.9512 2214.231,643.9512 Q2214.606,643.9512 2214.8403,644.2168 Q2215.0747,644.4668 2215.0747,645.0762 L2215.0747,646.5293 Q2215.0747,647.1387 2214.8403,647.4043 Q2214.606,647.6699 2214.231,647.6699 Q2213.8872,647.6699 2213.6841,647.4668 Q2213.481,647.2793 2213.3716,646.7637 Q2213.3247,646.4043 2213.1372,646.2168 Q2212.8091,645.8418 2212.1997,645.623 Q2211.5903,645.4043 2210.9653,645.4043 Q2210.1997,645.4043 2209.5591,645.7324 Q2208.9341,646.0605 2208.4341,646.8105 Q2207.9497,647.5605 2207.9497,648.5918 L2207.9497,649.6855 Q2207.9497,650.9199 2208.8403,651.748 Q2209.731,652.5605 2211.3247,652.5605 Q2212.2622,652.5605 2212.9185,652.3105 Q2213.3091,652.1543 2213.731,651.7168 Q2213.9966,651.4512 2214.1372,651.373 Q2214.2935,651.2949 2214.4966,651.2949 Q2214.8247,651.2949 2215.0747,651.5605 Q2215.3403,651.8105 2215.3403,652.1543 Q2215.3403,652.498 2214.9966,652.9043 Q2214.4966,653.4824 2213.6997,653.8105 Q2212.6216,654.2637 2211.3247,654.2637 Q2209.8091,654.2637 2208.606,653.6387 Q2207.6216,653.1387 2206.9341,652.0762 Q2206.2466,650.998 2206.2466,649.7168 L2206.2466,648.5605 Q2206.2466,647.2324 2206.856,646.0918 Q2207.481,644.9355 2208.5747,644.3262 Q2209.6685,643.7012 2210.9028,643.7012 Q2211.6372,643.7012 2212.2778,643.873 Q2212.9341,644.0293 2213.481,644.3887 Z " fill="#000000"/><text fill="#000000" font-family="sans-serif" font-size="14" lengthAdjust="spacing" textLength="59.9238" x="2231.2153" y="654.3105">KeyEvent</text><line style="stroke:#181818;stroke-width:0.5;" x1="2152" x2="2337.8545" y1="664.5137" y2="664.5137"/><line style="stroke:#181818;stroke-width:0.5;" x1="2152" x2="2337.8545" y1="672.5137" y2="672.5137"/><ellipse cx="2162" cy="687.3242" fill="#84BE84" rx="3" ry="3" style="stroke:#038048;stroke-width:1.0;"/><text fill="#000000" font-family="sans-serif" font-size="14" lengthAdjust="spacing" textLength="161.8545" x="2171" y="691.6211">isControlDown() : boolean</text><ellipse cx="2162" cy="705.9453" fill="#84BE84" rx="3" ry="3" style="stroke:#038048;stroke-width:1.0;"/><text fill="#000000" font-family="sans-serif" font-size="14" lengthAdjust="spacing" textLength="131.5166" x="2171" y="710.2422">getCode() : KeyCode</text></g><!--class KeyCode--><g id="elem_KeyCode"><rect codeLine="77" fill="#F1F1F1" height="85.2422" id="KeyCode" rx="2.5" ry="2.5" style="stroke:#181818;stroke-width:0.5;" width="89.5928" x="2374" y="632.5137"/><ellipse cx="2389" cy="648.5137" fill="#ADD1B2" rx="11" ry="11" style="stroke:#181818;stroke-width:1.0;"/><path d="M2391.7656,644.3887 Q2391.9219,644.1699 2392.1094,644.0605 Q2392.2969,643.9512 2392.5156,643.9512 Q2392.8906,643.9512 2393.125,644.2168 Q2393.3594,644.4668 2393.3594,645.0762 L2393.3594,646.5293 Q2393.3594,647.1387 2393.125,647.4043 Q2392.8906,647.6699 2392.5156,647.6699 Q2392.1719,647.6699 2391.9688,647.4668 Q2391.7656,647.2793 2391.6563,646.7637 Q2391.6094,646.4043 2391.4219,646.2168 Q2391.0938,645.8418 2390.4844,645.623 Q2389.875,645.4043 2389.25,645.4043 Q2388.4844,645.4043 2387.8438,645.7324 Q2387.2188,646.0605 2386.7188,646.8105 Q2386.2344,647.5605 2386.2344,648.5918 L2386.2344,649.6855 Q2386.2344,650.9199 2387.125,651.748 Q2388.0156,652.5605 2389.6094,652.5605 Q2390.5469,652.5605 2391.2031,652.3105 Q2391.5938,652.1543 2392.0156,651.7168 Q2392.2813,651.4512 2392.4219,651.373 Q2392.5781,651.2949 2392.7813,651.2949 Q2393.1094,651.2949 2393.3594,651.5605 Q2393.625,651.8105 2393.625,652.1543 Q2393.625,652.498 2393.2813,652.9043 Q2392.7813,653.4824 2391.9844,653.8105 Q2390.9063,654.2637 2389.6094,654.2637 Q2388.0938,654.2637 2386.8906,653.6387 Q2385.9063,653.1387 2385.2188,652.0762 Q2384.5313,650.998 2384.5313,649.7168 L2384.5313,648.5605 Q2384.5313,647.2324 2385.1406,646.0918 Q2385.7656,644.9355 2386.8594,644.3262 Q2387.9531,643.7012 2389.1875,643.7012 Q2389.9219,643.7012 2390.5625,643.873 Q2391.2188,644.0293 2391.7656,644.3887 Z " fill="#000000"/><text fill="#000000" font-family="sans-serif" font-size="14" lengthAdjust="spacing" textLength="57.5928" x="2403" y="654.3105">KeyCode</text><line style="stroke:#181818;stroke-width:0.5;" x1="2375" x2="2462.5928" y1="664.5137" y2="664.5137"/><text fill="#000000" font-family="sans-serif" font-size="14" lengthAdjust="spacing" textLength="8.5518" x="2380" y="683.6211">F</text><text fill="#000000" font-family="sans-serif" font-size="14" lengthAdjust="spacing" textLength="13.2139" x="2380" y="702.2422">W</text><line style="stroke:#181818;stroke-width:0.5;" x1="2375" x2="2462.5928" y1="709.7559" y2="709.7559"/></g><!--class Alert--><g id="elem_Alert"><rect codeLine="82" fill="#F1F1F1" height="122.4844" id="Alert" rx="2.5" ry="2.5" style="stroke:#181818;stroke-width:0.5;" width="261.7783" x="2499" y="614.0137"/><ellipse cx="2611.2461" cy="630.0137" fill="#ADD1B2" rx="11" ry="11" style="stroke:#181818;stroke-width:1.0;"/><path d="M2614.0117,625.8887 Q2614.168,625.6699 2614.3555,625.5605 Q2614.543,625.4512 2614.7617,625.4512 Q2615.1367,625.4512 2615.3711,625.7168 Q2615.6055,625.9668 2615.6055,626.5762 L2615.6055,628.0293 Q2615.6055,628.6387 2615.3711,628.9043 Q2615.1367,629.1699 2614.7617,629.1699 Q2614.418,629.1699 2614.2148,628.9668 Q2614.0117,628.7793 2613.9023,628.2637 Q2613.8555,627.9043 2613.668,627.7168 Q2613.3398,627.3418 2612.7305,627.123 Q2612.1211,626.9043 2611.4961,626.9043 Q2610.7305,626.9043 2610.0898,627.2324 Q2609.4648,627.5605 2608.9648,628.3105 Q2608.4805,629.0605 2608.4805,630.0918 L2608.4805,631.1855 Q2608.4805,632.4199 2609.3711,633.248 Q2610.2617,634.0605 2611.8555,634.0605 Q2612.793,634.0605 2613.4492,633.8105 Q2613.8398,633.6543 2614.2617,633.2168 Q2614.5273,632.9512 2614.668,632.873 Q2614.8242,632.7949 2615.0273,632.7949 Q2615.3555,632.7949 2615.6055,633.0605 Q2615.8711,633.3105 2615.8711,633.6543 Q2615.8711,633.998 2615.5273,634.4043 Q2615.0273,634.9824 2614.2305,635.3105 Q2613.1523,635.7637 2611.8555,635.7637 Q2610.3398,635.7637 2609.1367,635.1387 Q2608.1523,634.6387 2607.4648,633.5762 Q2606.7773,632.498 2606.7773,631.2168 L2606.7773,630.0605 Q2606.7773,628.7324 2607.3867,627.5918 Q2608.0117,626.4355 2609.1055,625.8262 Q2610.1992,625.2012 2611.4336,625.2012 Q2612.168,625.2012 2612.8086,625.373 Q2613.4648,625.5293 2614.0117,625.8887 Z " fill="#000000"/><text fill="#000000" font-family="sans-serif" font-size="14" lengthAdjust="spacing" textLength="28.7861" x="2631.7461" y="635.8105">Alert</text><line style="stroke:#181818;stroke-width:0.5;" x1="2500" x2="2759.7783" y1="646.0137" y2="646.0137"/><line style="stroke:#181818;stroke-width:0.5;" x1="2500" x2="2759.7783" y1="654.0137" y2="654.0137"/><ellipse cx="2510" cy="668.8242" fill="#84BE84" rx="3" ry="3" style="stroke:#038048;stroke-width:1.0;"/><text fill="#000000" font-family="sans-serif" font-size="14" lengthAdjust="spacing" textLength="161.8271" x="2519" y="673.1211">setTitle(title : String) : void</text><ellipse cx="2510" cy="687.4453" fill="#84BE84" rx="3" ry="3" style="stroke:#038048;stroke-width:1.0;"/><text fill="#000000" font-family="sans-serif" font-size="14" lengthAdjust="spacing" textLength="230.3301" x="2519" y="691.7422">setHeaderText(header : String) : void</text><ellipse cx="2510" cy="706.0664" fill="#84BE84" rx="3" ry="3" style="stroke:#038048;stroke-width:1.0;"/><text fill="#000000" font-family="sans-serif" font-size="14" lengthAdjust="spacing" textLength="235.7783" x="2519" y="710.3633">setContentText(content : String) : void</text><ellipse cx="2510" cy="724.6875" fill="#84BE84" rx="3" ry="3" style="stroke:#038048;stroke-width:1.0;"/><text fill="#000000" font-family="sans-serif" font-size="14" lengthAdjust="spacing" textLength="132.2686" x="2519" y="728.9844">showAndWait() : void</text></g><!--link BrowserController to AppLogger--><g id="link_BrowserController_AppLogger"><path codeLine="90" d="M1435.31,359.6137 C1179.54,397.6737 697.92,480.6837 305,614.0137 C289.86,619.1537 279.6162,623.1597 264.6362,629.9397 " fill="none" id="BrowserController-to-AppLogger" style="stroke:#181818;stroke-width:1.0;stroke-dasharray:7.0,7.0;"/><polygon fill="#181818" points="259.17,632.4137,269.0186,632.3468,263.7252,630.352,265.7199,625.0585,259.17,632.4137" style="stroke:#181818;stroke-width:1.0;"/><text fill="#000000" font-family="sans-serif" font-size="13" lengthAdjust="spacing" textLength="27.46" x="444" y="580.042">uses</text></g><!--link BrowserController to AppProfiler--><g id="link_BrowserController_AppProfiler"><path codeLine="91" d="M1435.48,377.4137 C1230.91,427.3037 887.56,515.8937 599,614.0137 C590.78,616.8137 587.985,617.7359 579.525,620.8759 " fill="none" id="BrowserController-to-AppProfiler" style="stroke:#181818;stroke-width:1.0;stroke-dasharray:7.0,7.0;"/><polygon fill="#181818" points="573.9,622.9637,583.7294,623.582,578.5875,621.2239,580.9457,616.082,573.9,622.9637" style="stroke:#181818;stroke-width:1.0;"/><text fill="#000000" font-family="sans-serif" font-size="13" lengthAdjust="spacing" textLength="27.46" x="736" y="580.042">uses</text></g><!--link BrowserController to TextField--><g id="link_BrowserController_TextField"><path codeLine="92" d="M1435.34,398.6437 C1283.28,453.3237 1060.07,535.5437 868,614.0137 C861.95,616.4837 861.289,616.7333 855.049,619.3633 " fill="none" id="BrowserController-to-TextField" style="stroke:#181818;stroke-width:1.0;stroke-dasharray:7.0,7.0;"/><polygon fill="#181818" points="849.52,621.6937,859.367,621.8842,854.1275,619.7517,856.2599,614.5122,849.52,621.6937" style="stroke:#181818;stroke-width:1.0;"/><text fill="#000000" font-family="sans-serif" font-size="13" lengthAdjust="spacing" textLength="140.8989" x="990" y="580.042">searchField, addressBar</text></g><!--link BrowserController to TabPane--><g id="link_BrowserController_TabPane"><path codeLine="93" d="M1435.19,456.6837 C1350.71,513.8437 1259.5191,575.5409 1194.6191,619.4609 " fill="none" id="BrowserController-to-TabPane" style="stroke:#181818;stroke-width:1.0;stroke-dasharray:7.0,7.0;"/><polygon fill="#181818" points="1189.65,622.8237,1199.3455,621.0923,1193.7909,620.0214,1194.8618,614.4668,1189.65,622.8237" style="stroke:#181818;stroke-width:1.0;"/><text fill="#000000" font-family="sans-serif" font-size="13" lengthAdjust="spacing" textLength="48.4326" x="1263" y="580.042">tabPane</text></g><!--link BrowserController to Tab--><g id="link_BrowserController_Tab"><path codeLine="94" d="M1543.56,535.1537 C1532,567.5437 1523.008,592.7532 1514.308,617.1132 " fill="none" id="BrowserController-to-Tab" style="stroke:#181818;stroke-width:1.0;stroke-dasharray:7.0,7.0;"/><polygon fill="#181818" points="1512.29,622.7637,1519.084,615.6333,1513.9717,618.055,1511.5501,612.9426,1512.29,622.7637" style="stroke:#181818;stroke-width:1.0;"/><text fill="#000000" font-family="sans-serif" font-size="13" lengthAdjust="spacing" textLength="81.6626" x="1530" y="580.042">manages tabs</text></g><!--link BrowserController to WebView--><g id="link_BrowserController_WebView"><path codeLine="95" d="M1686.44,535.1537 C1701.22,576.5837 1713.0932,609.8328 1722.3832,635.8628 " fill="none" id="BrowserController-to-WebView" style="stroke:#181818;stroke-width:1.0;stroke-dasharray:7.0,7.0;"/><polygon fill="#181818" points="1724.4,641.5137,1725.1421,631.6928,1722.7193,636.8046,1717.6076,634.3819,1724.4,641.5137" style="stroke:#181818;stroke-width:1.0;"/><text fill="#000000" font-family="sans-serif" font-size="13" lengthAdjust="spacing" textLength="113.458" x="1704" y="580.042">displays web pages</text></g><!--link BrowserController to WebEngine--><g id="link_BrowserController_WebEngine"><path codeLine="96" d="M1794.61,497.8137 C1844.62,543.1437 1890.8839,585.0847 1927.9739,618.6947 " fill="none" id="BrowserController-to-WebEngine" style="stroke:#181818;stroke-width:1.0;stroke-dasharray:7.0,7.0;"/><polygon fill="#181818" points="1932.42,622.7237,1928.4368,613.7162,1928.7149,619.3662,1923.0649,619.6443,1932.42,622.7237" style="stroke:#181818;stroke-width:1.0;"/><text fill="#000000" font-family="sans-serif" font-size="13" lengthAdjust="spacing" textLength="77.3335" x="1889" y="580.042">loads content</text></g><!--link BrowserController to KeyEvent--><g id="link_BrowserController_KeyEvent"><path codeLine="97" d="M1794.6,431.4337 C1894.56,485.1237 2021.21,553.2137 2134,614.0137 C2144.99,619.9337 2151.3105,623.353 2162.7005,629.503 " fill="none" id="BrowserController-to-KeyEvent" style="stroke:#181818;stroke-width:1.0;stroke-dasharray:7.0,7.0;"/><polygon fill="#181818" points="2167.98,632.3537,2161.9611,624.558,2163.5804,629.9781,2158.1602,631.5974,2167.98,632.3537" style="stroke:#181818;stroke-width:1.0;"/><text fill="#000000" font-family="sans-serif" font-size="13" lengthAdjust="spacing" textLength="111.2935" x="2078" y="580.042">handles key events</text></g><!--link BrowserController to KeyCode--><g id="link_BrowserController_KeyCode"><path codeLine="98" d="M1794.59,380.1237 C1951.05,424.4937 2179.95,501.9437 2357,614.0137 C2365.23,619.2237 2368.8141,621.6356 2376.2441,628.3356 " fill="none" id="BrowserController-to-KeyCode" style="stroke:#181818;stroke-width:1.0;stroke-dasharray:7.0,7.0;"/><polygon fill="#181818" points="2380.7,632.3537,2376.6949,623.3559,2376.9868,629.0053,2371.3374,629.2971,2380.7,632.3537" style="stroke:#181818;stroke-width:1.0;"/><text fill="#000000" font-family="sans-serif" font-size="13" lengthAdjust="spacing" textLength="102.6035" x="2302" y="580.042">checks key codes</text></g><!--link BrowserController to Alert--><g id="link_BrowserController_Alert"><path codeLine="99" d="M1794.83,376.7237 C1958.65,417.0737 2205.9,483.9537 2413,565.0137 C2448.73,578.9937 2481.1187,594.1001 2514.9387,611.2501 " fill="none" id="BrowserController-to-Alert" style="stroke:#181818;stroke-width:1.0;stroke-dasharray:7.0,7.0;"/><polygon fill="#181818" points="2520.29,613.9637,2514.0721,606.3257,2515.8306,611.7023,2510.454,613.4608,2520.29,613.9637" style="stroke:#181818;stroke-width:1.0;"/><text fill="#000000" font-family="sans-serif" font-size="13" lengthAdjust="spacing" textLength="112.7153" x="2456" y="580.042">shows error dialogs</text></g><!--SRC=[dLPHSzeu47xdLsXugJiDv9tfP2Qvm3HtNC90MlhMaQt5LYCadoH3Q2R__LQImHWRSrU_U2rztsgz-dQb3vcrkHbTN-U2IbkinJ1Hwsi3_nGW4nWmJbDDrxtU1t8FAow1s0n8JfCNcW9PAKqI9Isysjv-h8_yeTaP2-jXhDNMWEwJjrwFu5DpSXSc_q2-La80kXBK60_qLWlYpS-wPp3-_ZoUFzvEVzpDdvQByVp7r_bqGKPaoetzlB2Qo_IcGXkWEiac70H3p3C6xEq3u9EbyOnYP3WPh8fB6TDWp1tLhTH1hjMAk-X6v3RFP-LNDJ-ep8nA9k0lsCsSHs0HR41Q9EBGs9aVqTueVXHOYFn1pZ2vKMDwO39L2FQKWtoGurSBMb9HvYqgj41yo8LZnae9eBBohNwFXWbvX2tcgG6jXnxSJxY6bNfjnlw9Isuv5VpNcH_RZhLM-XuXAeqijm8EYrsHDIRGwUtiyeD3c4jkCnGUBOJzgaNBMhYdcYPs2R7X5Xxf6Xf_5goAuluDdJt8_vA9WQGRdb8BTrWaqVdfYT9RgbaB0bE8YicQ8dZVLzR3EbVQ0YE5vOBRNQWXC0GbHrvWHnXWo0ohciDnaQ5afofDQyM5ExDIqMc6hyXmEAGwDHyh8BWTkeHyho-thv3Z1OsbsaQ2nj0bA6DLtg8Zb4VmYQGv6DpcBa_l9xt8vUPFkg6JxxMKOOlY6bLcCyMEytLe0BNmmRhno7N2ZlZJ4jOYAEVY6pSy5X1jmhiglQOdxHgqiHEL5APL46MmPLTxgyMm0069vKh-hHY4UgWFrIEcSLZYASRkiA4OcU-nE7vJwmc-WKsum6uI-jhpBdS_CTxRLoJqFxqV_18-E-C_IRCx390P9U6Dp4UC-7-d-i9krOB0jl2Dm_OaYMEPedgyVmI4hrPkc3fc2qNPXTQ92qmHjLJw1RFf5_7cKUMzGb9OM2IQvpOo_bLp-1J_n2sjIxxKEPTvOMjgFzCSziTIhJUOya2-LriPjHuGgTid5fA3BfpTJ4qvSUHwSh2MJVWj2iMUrfmx4qvEXhOJr7u1oa3xJS-ysGqlHURnbT3E4l2akfLiIRazqvld8AWhBfFnt90Ox1P0xlFlCSshpd1uSzIRHwIu29rLzv0BuAg7ZKZ_w6fqHQgxJh-BVxWizSjxqmMqGwwfn3F246IOBlY-t932kC5hwSwGBSHuwKJs1M9PQqXrDMP8kNbTh8F4aHJQa_57WkzWvWBJ2nY9IGR9I-0bEDH92q9sYKVT6E9FKCBy9GTvlVVUlm00]--></g></svg>