<svg xmlns="http://www.w3.org/2000/svg" xmlns:xlink="http://www.w3.org/1999/xlink" contentStyleType="text/css" height="472px" preserveAspectRatio="none" style="width:614px;height:472px;background:#FFFFFF;" version="1.1" viewBox="0 0 614 472" width="614px" zoomAndPan="magnify"><defs/><g><!--cluster com--><g id="cluster_com"><path d="M8.5,6.0137 L38.2861,6.0137 A3.75,3.75 0 0 1 40.7861,8.5137 L47.7861,30.6348 L604.5,30.6348 A2.5,2.5 0 0 1 607,33.1348 L607,462.5137 A2.5,2.5 0 0 1 604.5,465.0137 L8.5,465.0137 A2.5,2.5 0 0 1 6,462.5137 L6,8.5137 A2.5,2.5 0 0 1 8.5,6.0137 " fill="none" style="stroke:#000000;stroke-width:1.5;"/><line style="stroke:#000000;stroke-width:1.5;" x1="6" x2="47.7861" y1="30.6348" y2="30.6348"/><text fill="#000000" font-family="sans-serif" font-size="14" font-weight="bold" lengthAdjust="spacing" textLength="28.7861" x="10" y="23.1211">com</text></g><!--cluster system--><g id="cluster_system"><path d="M32.5,51.0137 L81.7549,51.0137 A3.75,3.75 0 0 1 84.2549,53.5137 L91.2549,75.6348 L580.5,75.6348 A2.5,2.5 0 0 1 583,78.1348 L583,438.5137 A2.5,2.5 0 0 1 580.5,441.0137 L32.5,441.0137 A2.5,2.5 0 0 1 30,438.5137 L30,53.5137 A2.5,2.5 0 0 1 32.5,51.0137 " fill="none" style="stroke:#000000;stroke-width:1.5;"/><line style="stroke:#000000;stroke-width:1.5;" x1="30" x2="91.2549" y1="75.6348" y2="75.6348"/><text fill="#000000" font-family="sans-serif" font-size="14" font-weight="bold" lengthAdjust="spacing" textLength="48.2549" x="34" y="68.1211">system</text></g><!--cluster browser--><g id="cluster_browser"><path d="M56.5,96.0137 L111.9619,96.0137 A3.75,3.75 0 0 1 114.4619,98.5137 L121.4619,120.6348 L556.5,120.6348 A2.5,2.5 0 0 1 559,123.1348 L559,414.5137 A2.5,2.5 0 0 1 556.5,417.0137 L56.5,417.0137 A2.5,2.5 0 0 1 54,414.5137 L54,98.5137 A2.5,2.5 0 0 1 56.5,96.0137 " fill="none" style="stroke:#000000;stroke-width:1.5;"/><line style="stroke:#000000;stroke-width:1.5;" x1="54" x2="121.4619" y1="120.6348" y2="120.6348"/><text fill="#000000" font-family="sans-serif" font-size="14" font-weight="bold" lengthAdjust="spacing" textLength="54.4619" x="58" y="113.1211">browser</text></g><!--class URLAutoComplete--><g id="elem_URLAutoComplete"><rect codeLine="7" fill="#F1F1F1" height="103.8633" id="URLAutoComplete" rx="2.5" ry="2.5" style="stroke:#181818;stroke-width:0.5;" width="307.668" x="123" y="133.0137"/><ellipse cx="214.2222" cy="149.0137" fill="#ADD1B2" rx="11" ry="11" style="stroke:#181818;stroke-width:1.0;"/><path d="M216.9878,144.8887 Q217.144,144.6699 217.3315,144.5605 Q217.519,144.4512 217.7378,144.4512 Q218.1128,144.4512 218.3472,144.7168 Q218.5815,144.9668 218.5815,145.5762 L218.5815,147.0293 Q218.5815,147.6387 218.3472,147.9043 Q218.1128,148.1699 217.7378,148.1699 Q217.394,148.1699 217.1909,147.9668 Q216.9878,147.7793 216.8784,147.2637 Q216.8315,146.9043 216.644,146.7168 Q216.3159,146.3418 215.7065,146.123 Q215.0972,145.9043 214.4722,145.9043 Q213.7065,145.9043 213.0659,146.2324 Q212.4409,146.5605 211.9409,147.3105 Q211.4565,148.0605 211.4565,149.0918 L211.4565,150.1855 Q211.4565,151.4199 212.3472,152.248 Q213.2378,153.0605 214.8315,153.0605 Q215.769,153.0605 216.4253,152.8105 Q216.8159,152.6543 217.2378,152.2168 Q217.5034,151.9512 217.644,151.873 Q217.8003,151.7949 218.0034,151.7949 Q218.3315,151.7949 218.5815,152.0605 Q218.8472,152.3105 218.8472,152.6543 Q218.8472,152.998 218.5034,153.4043 Q218.0034,153.9824 217.2065,154.3105 Q216.1284,154.7637 214.8315,154.7637 Q213.3159,154.7637 212.1128,154.1387 Q211.1284,153.6387 210.4409,152.5762 Q209.7534,151.498 209.7534,150.2168 L209.7534,149.0605 Q209.7534,147.7324 210.3628,146.5918 Q210.9878,145.4355 212.0815,144.8262 Q213.1753,144.2012 214.4097,144.2012 Q215.144,144.2012 215.7847,144.373 Q216.4409,144.5293 216.9878,144.8887 Z " fill="#000000"/><text fill="#000000" font-family="sans-serif" font-size="14" lengthAdjust="spacing" textLength="116.7236" x="234.7222" y="154.8105">URLAutoComplete</text><line style="stroke:#181818;stroke-width:0.5;" x1="124" x2="429.668" y1="165.0137" y2="165.0137"/><rect fill="none" height="6" style="stroke:#C82930;stroke-width:1.0;" width="6" x="131" y="176.8242"/><text fill="#000000" font-family="sans-serif" font-size="14" lengthAdjust="spacing" textLength="240.4063" x="143" y="184.1211">DOMAIN_EXTENSIONS : List&lt;String&gt;</text><line style="stroke:#181818;stroke-width:1.0;" x1="124" x2="429.668" y1="191.6348" y2="191.6348"/><ellipse cx="134" cy="206.4453" fill="#84BE84" rx="3" ry="3" style="stroke:#038048;stroke-width:1.0;"/><text fill="#000000" font-family="sans-serif" font-size="14" lengthAdjust="spacing" textLength="281.668" x="143" y="210.7422">suggestCompletion(partialUrl : String) : String</text><ellipse cx="134" cy="225.0664" fill="#84BE84" rx="3" ry="3" style="stroke:#038048;stroke-width:1.0;"/><text fill="#000000" font-family="sans-serif" font-size="14" lengthAdjust="spacing" textLength="213.9443" x="143" y="229.3633">addWwwPrefix(url : String) : String</text></g><!--class Arrays--><g id="elem_Arrays"><rect codeLine="15" fill="#F1F1F1" height="66.6211" id="Arrays" rx="2.5" ry="2.5" style="stroke:#181818;stroke-width:0.5;" width="190.1582" x="70" y="325.0137"/><ellipse cx="140.605" cy="341.0137" fill="#ADD1B2" rx="11" ry="11" style="stroke:#181818;stroke-width:1.0;"/><path d="M143.3706,336.8887 Q143.5269,336.6699 143.7144,336.5605 Q143.9019,336.4512 144.1206,336.4512 Q144.4956,336.4512 144.73,336.7168 Q144.9644,336.9668 144.9644,337.5762 L144.9644,339.0293 Q144.9644,339.6387 144.73,339.9043 Q144.4956,340.1699 144.1206,340.1699 Q143.7769,340.1699 143.5737,339.9668 Q143.3706,339.7793 143.2612,339.2637 Q143.2144,338.9043 143.0269,338.7168 Q142.6987,338.3418 142.0894,338.123 Q141.48,337.9043 140.855,337.9043 Q140.0894,337.9043 139.4487,338.2324 Q138.8237,338.5605 138.3237,339.3105 Q137.8394,340.0605 137.8394,341.0918 L137.8394,342.1855 Q137.8394,343.4199 138.73,344.248 Q139.6206,345.0605 141.2144,345.0605 Q142.1519,345.0605 142.8081,344.8105 Q143.1987,344.6543 143.6206,344.2168 Q143.8862,343.9512 144.0269,343.873 Q144.1831,343.7949 144.3862,343.7949 Q144.7144,343.7949 144.9644,344.0605 Q145.23,344.3105 145.23,344.6543 Q145.23,344.998 144.8862,345.4043 Q144.3862,345.9824 143.5894,346.3105 Q142.5112,346.7637 141.2144,346.7637 Q139.6987,346.7637 138.4956,346.1387 Q137.5112,345.6387 136.8237,344.5762 Q136.1362,343.498 136.1362,342.2168 L136.1362,341.0605 Q136.1362,339.7324 136.7456,338.5918 Q137.3706,337.4355 138.4644,336.8262 Q139.5581,336.2012 140.7925,336.2012 Q141.5269,336.2012 142.1675,336.373 Q142.8237,336.5293 143.3706,336.8887 Z " fill="#000000"/><text fill="#000000" font-family="sans-serif" font-size="14" lengthAdjust="spacing" textLength="40.4482" x="161.105" y="346.8105">Arrays</text><line style="stroke:#181818;stroke-width:0.5;" x1="71" x2="259.1582" y1="357.0137" y2="357.0137"/><line style="stroke:#181818;stroke-width:0.5;" x1="71" x2="259.1582" y1="365.0137" y2="365.0137"/><ellipse cx="81" cy="379.8242" fill="#84BE84" rx="3" ry="3" style="stroke:#038048;stroke-width:1.0;"/><text fill="#000000" font-family="sans-serif" font-size="14" lengthAdjust="spacing" textLength="164.1582" x="90" y="384.1211">asList(vararg : T) : List&lt;T&gt;</text></g><!--class List--><g id="elem_List"><rect codeLine="19" fill="#F1F1F1" height="85.2422" id="List" rx="2.5" ry="2.5" style="stroke:#181818;stroke-width:0.5;" width="146.6064" x="295.5" y="316.0137"/><ellipse cx="347.6582" cy="332.0137" fill="#ADD1B2" rx="11" ry="11" style="stroke:#181818;stroke-width:1.0;"/><path d="M350.4238,327.8887 Q350.5801,327.6699 350.7676,327.5605 Q350.9551,327.4512 351.1738,327.4512 Q351.5488,327.4512 351.7832,327.7168 Q352.0176,327.9668 352.0176,328.5762 L352.0176,330.0293 Q352.0176,330.6387 351.7832,330.9043 Q351.5488,331.1699 351.1738,331.1699 Q350.8301,331.1699 350.627,330.9668 Q350.4238,330.7793 350.3145,330.2637 Q350.2676,329.9043 350.0801,329.7168 Q349.752,329.3418 349.1426,329.123 Q348.5332,328.9043 347.9082,328.9043 Q347.1426,328.9043 346.502,329.2324 Q345.877,329.5605 345.377,330.3105 Q344.8926,331.0605 344.8926,332.0918 L344.8926,333.1855 Q344.8926,334.4199 345.7832,335.248 Q346.6738,336.0605 348.2676,336.0605 Q349.2051,336.0605 349.8613,335.8105 Q350.252,335.6543 350.6738,335.2168 Q350.9395,334.9512 351.0801,334.873 Q351.2363,334.7949 351.4395,334.7949 Q351.7676,334.7949 352.0176,335.0605 Q352.2832,335.3105 352.2832,335.6543 Q352.2832,335.998 351.9395,336.4043 Q351.4395,336.9824 350.6426,337.3105 Q349.5645,337.7637 348.2676,337.7637 Q346.752,337.7637 345.5488,337.1387 Q344.5645,336.6387 343.877,335.5762 Q343.1895,334.498 343.1895,333.2168 L343.1895,332.0605 Q343.1895,330.7324 343.7988,329.5918 Q344.4238,328.4355 345.5176,327.8262 Q346.6113,327.2012 347.8457,327.2012 Q348.5801,327.2012 349.2207,327.373 Q349.877,327.5293 350.4238,327.8887 Z " fill="#000000"/><text fill="#000000" font-family="sans-serif" font-size="14" lengthAdjust="spacing" textLength="21.7861" x="368.1582" y="337.8105">List</text><rect fill="#FFFFFF" height="17.9609" style="stroke:#181818;stroke-width:1.0;stroke-dasharray:2.0,2.0;" width="10.0039" x="435.1025" y="313.0137"/><text fill="#000000" font-family="sans-serif" font-size="12" font-style="italic" lengthAdjust="spacing" textLength="8.0039" x="436.1025" y="326.9629">E</text><line style="stroke:#181818;stroke-width:0.5;" x1="296.5" x2="441.1064" y1="348.0137" y2="348.0137"/><line style="stroke:#181818;stroke-width:0.5;" x1="296.5" x2="441.1064" y1="356.0137" y2="356.0137"/><ellipse cx="306.5" cy="370.8242" fill="#84BE84" rx="3" ry="3" style="stroke:#038048;stroke-width:1.0;"/><text fill="#000000" font-family="sans-serif" font-size="14" lengthAdjust="spacing" textLength="120.6064" x="315.5" y="375.1211">isEmpty() : boolean</text><ellipse cx="306.5" cy="389.4453" fill="#84BE84" rx="3" ry="3" style="stroke:#038048;stroke-width:1.0;"/><text fill="#000000" font-family="sans-serif" font-size="14" lengthAdjust="spacing" textLength="101.9375" x="315.5" y="393.7422">get(int index) : E</text></g><!--link URLAutoComplete to Arrays--><g id="link_URLAutoComplete_Arrays"><path codeLine="25" d="M154.81,237.2737 C144.65,245.8237 135.72,255.6737 129,267.0137 C118.22,285.1937 123.3177,302.1488 134.6677,319.8988 " fill="none" id="URLAutoComplete-to-Arrays" style="stroke:#181818;stroke-width:1.0;stroke-dasharray:7.0,7.0;"/><polygon fill="#181818" points="137.9,324.9537,136.4215,315.2164,135.2064,320.7412,129.6816,319.5262,137.9,324.9537" style="stroke:#181818;stroke-width:1.0;"/><text fill="#000000" font-family="sans-serif" font-size="13" lengthAdjust="spacing" textLength="184.2407" x="130" y="282.042">uses Arrays for list manipulation</text></g><!--link URLAutoComplete to List--><g id="link_URLAutoComplete_List"><path codeLine="26" d="M304.6,237.4737 C318.05,262.5337 331.1619,286.9873 343.8319,310.5873 " fill="none" id="URLAutoComplete-to-List" style="stroke:#181818;stroke-width:1.0;stroke-dasharray:7.0,7.0;"/><polygon fill="#181818" points="346.67,315.8737,345.9372,306.0521,344.305,311.4684,338.8887,309.8362,346.67,315.8737" style="stroke:#181818;stroke-width:1.0;"/><text fill="#000000" font-family="sans-serif" font-size="13" lengthAdjust="spacing" textLength="210.2788" x="329" y="282.042">uses List to store domain extensions</text></g><!--SRC=[TL9DRy8m3BttLrYzK3HHxcX2GgC79WOJ7zfkaqjDYKYJAd612l7VbxRZSy8d9txlsIznQyESsrwtcqjKN6GoNEcikv9eRISHc1hCFAy5GreBHS0RWXnNMqm9rjh0IYkc0tldEz-HGrjQfYoCZTvRCZuSFGzSt8aiP-D1mVfDPxaa9gWRrh0w-rS_rhKgEiFfns0q-Oc-5z5aFffEvj23iR3yEcSZLDg_8ZkNzCKMQKgM__I4La6EXWNAfP6Etr3Rb-nAn2Jvsky_ZHlz41JFmQS7ariguHrt29PH9MWIa28sQCh68DsQ7HY3fRtn-8AsSXJiq35IrsZHFfjSz6_RDVow4FLl1OIDifpBeEB5Maj2TIscn85G348bTAWGqRs56KcitiXkH6uX9juJgRkv7xyd3Fjd5ptm2mSx7wijaMu-o529l6Y4_QSYbPMBH7rWxPvG6u94PoWKk7KZPQlfVCyxURy0]--></g></svg>